<svg width="45" height="45" viewBox="0 0 45 45" fill="none" xmlns="http://www.w3.org/2000/svg">
<rect width="45" height="45" rx="22.5" fill="#ECF1EC"/>
<path fill-rule="evenodd" clip-rule="evenodd" d="M14.7647 14L13.2212 18.9394C12.7937 20.3072 13.1561 21.687 13.9999 22.6596V32H31.9999V22.6596C32.8437 21.687 33.206 20.3072 32.7786 18.9394L31.235 14H14.7647ZM19.3671 16H16.2351L15.1301 19.5359C14.7482 20.7581 15.6612 22 16.9417 22C17.8988 22 18.7062 21.2873 18.825 20.3375L18.9396 19.4202C18.9403 19.4145 18.941 19.4087 18.9417 19.403L19.3671 16ZM20.9248 19.6634L21.3827 16H24.6171L25.0753 19.6659C25.2217 20.907 24.2519 22 22.9999 22C21.7471 22 20.7768 20.9056 20.9248 19.6634ZM27.1748 20.3375L27.0606 19.4239L27.058 19.403L26.6327 16H29.7646L30.8696 19.5359C31.2515 20.7581 30.3385 22 29.0581 22C28.1009 22 27.2935 21.2873 27.1748 20.3375Z" fill="#077F3C"/>
</svg>
