<svg width="859" height="606" viewBox="0 0 859 606" fill="none" xmlns="http://www.w3.org/2000/svg">
<rect x="1.10232" y="1.26198" width="95.1659" height="95.1659" stroke="#C7BEBE" stroke-opacity="0.4" stroke-width="1.20463"/>
<rect x="96.2681" y="1.26198" width="95.1659" height="95.1659" stroke="#C7BEBE" stroke-opacity="0.4" stroke-width="1.20463"/>
<rect x="191.434" y="1.26198" width="95.1659" height="95.1659" stroke="#C7BEBE" stroke-opacity="0.4" stroke-width="1.20463"/>
<rect x="286.6" y="1.26198" width="95.1659" height="95.1659" stroke="#C7BEBE" stroke-opacity="0.4" stroke-width="1.20463"/>
<rect x="381.766" y="1.26198" width="95.1659" height="95.1659" stroke="#C7BEBE" stroke-opacity="0.4" stroke-width="1.20463"/>
<rect x="476.932" y="1.26198" width="95.1659" height="95.1659" stroke="#C7BEBE" stroke-opacity="0.4" stroke-width="1.20463"/>
<rect x="571.495" y="0.659668" width="96.3705" height="96.3705" fill="#414542" fill-opacity="0.1"/>
<rect x="572.097" y="1.26198" width="95.1659" height="95.1659" stroke="#C7BEBE" stroke-opacity="0.4" stroke-width="1.20463"/>
<rect x="667.263" y="1.26198" width="95.1659" height="95.1659" stroke="#C7BEBE" stroke-opacity="0.4" stroke-width="1.20463"/>
<rect x="762.429" y="1.26198" width="95.1659" height="95.1659" stroke="#C7BEBE" stroke-opacity="0.4" stroke-width="1.20463"/>
<rect x="1.10232" y="96.4279" width="95.1659" height="95.1659" stroke="#C7BEBE" stroke-opacity="0.4" stroke-width="1.20463"/>
<rect x="96.2681" y="96.4279" width="95.1659" height="95.1659" stroke="#C7BEBE" stroke-opacity="0.4" stroke-width="1.20463"/>
<rect x="191.434" y="96.4279" width="95.1659" height="95.1659" stroke="#C7BEBE" stroke-opacity="0.4" stroke-width="1.20463"/>
<rect x="286.6" y="96.4279" width="95.1659" height="95.1659" stroke="#C7BEBE" stroke-opacity="0.4" stroke-width="1.20463"/>
<rect x="381.766" y="96.4279" width="95.1659" height="95.1659" stroke="#C7BEBE" stroke-opacity="0.4" stroke-width="1.20463"/>
<rect x="476.932" y="96.4279" width="95.1659" height="95.1659" stroke="#C7BEBE" stroke-opacity="0.4" stroke-width="1.20463"/>
<rect x="572.097" y="96.4279" width="95.1659" height="95.1659" stroke="#C7BEBE" stroke-opacity="0.4" stroke-width="1.20463"/>
<rect x="667.263" y="96.4279" width="95.1659" height="95.1659" stroke="#C7BEBE" stroke-opacity="0.4" stroke-width="1.20463"/>
<rect x="762.429" y="96.4279" width="95.1659" height="95.1659" stroke="#C7BEBE" stroke-opacity="0.4" stroke-width="1.20463"/>
<rect x="1.10232" y="191.594" width="95.1659" height="95.1659" stroke="#C7BEBE" stroke-opacity="0.4" stroke-width="1.20463"/>
<rect x="96.2681" y="191.594" width="95.1659" height="95.1659" stroke="#C7BEBE" stroke-opacity="0.4" stroke-width="1.20463"/>
<rect x="191.434" y="191.594" width="95.1659" height="95.1659" stroke="#C7BEBE" stroke-opacity="0.4" stroke-width="1.20463"/>
<rect x="286.6" y="191.594" width="95.1659" height="95.1659" stroke="#C7BEBE" stroke-opacity="0.4" stroke-width="1.20463"/>
<rect x="381.164" y="190.991" width="96.3705" height="96.3705" fill="#414542" fill-opacity="0.1"/>
<rect x="381.766" y="191.594" width="95.1659" height="95.1659" stroke="#C7BEBE" stroke-opacity="0.4" stroke-width="1.20463"/>
<rect x="476.932" y="191.594" width="95.1659" height="95.1659" stroke="#C7BEBE" stroke-opacity="0.4" stroke-width="1.20463"/>
<rect x="571.495" y="190.991" width="96.3705" height="96.3705" fill="#414542" fill-opacity="0.1"/>
<rect x="572.097" y="191.594" width="95.1659" height="95.1659" stroke="#C7BEBE" stroke-opacity="0.4" stroke-width="1.20463"/>
<rect x="667.263" y="191.594" width="95.1659" height="95.1659" stroke="#C7BEBE" stroke-opacity="0.4" stroke-width="1.20463"/>
<rect x="762.429" y="191.594" width="95.1659" height="95.1659" stroke="#C7BEBE" stroke-opacity="0.4" stroke-width="1.20463"/>
<rect x="1.10232" y="286.76" width="95.1659" height="95.1659" stroke="#C7BEBE" stroke-opacity="0.4" stroke-width="1.20463"/>
<rect x="96.2683" y="286.76" width="95.1659" height="95.1659" stroke="#C7BEBE" stroke-opacity="0.4" stroke-width="1.20463"/>
<rect x="191.434" y="286.76" width="95.1659" height="95.1659" stroke="#C7BEBE" stroke-opacity="0.4" stroke-width="1.20463"/>
<rect x="286.6" y="286.76" width="95.1659" height="95.1659" stroke="#C7BEBE" stroke-opacity="0.4" stroke-width="1.20463"/>
<rect x="381.766" y="286.76" width="95.1659" height="95.1659" stroke="#C7BEBE" stroke-opacity="0.4" stroke-width="1.20463"/>
<rect x="476.932" y="286.76" width="95.1659" height="95.1659" stroke="#C7BEBE" stroke-opacity="0.4" stroke-width="1.20463"/>
<rect x="572.097" y="286.76" width="95.1659" height="95.1659" stroke="#C7BEBE" stroke-opacity="0.4" stroke-width="1.20463"/>
<rect x="667.263" y="286.76" width="95.1659" height="95.1659" stroke="#C7BEBE" stroke-opacity="0.4" stroke-width="1.20463"/>
<rect x="762.429" y="286.76" width="95.1659" height="95.1659" stroke="#C7BEBE" stroke-opacity="0.4" stroke-width="1.20463"/>
<rect x="1.10232" y="381.926" width="95.1659" height="95.1659" stroke="#C7BEBE" stroke-opacity="0.4" stroke-width="1.20463"/>
<rect x="96.2681" y="381.925" width="95.1659" height="95.1659" stroke="#C7BEBE" stroke-opacity="0.4" stroke-width="1.20463"/>
<rect x="191.434" y="381.925" width="95.1659" height="95.1659" stroke="#C7BEBE" stroke-opacity="0.4" stroke-width="1.20463"/>
<rect x="285.998" y="381.323" width="96.3705" height="96.3705" fill="#414542" fill-opacity="0.1"/>
<rect x="286.6" y="381.925" width="95.1659" height="95.1659" stroke="#C7BEBE" stroke-opacity="0.4" stroke-width="1.20463"/>
<rect x="381.766" y="381.925" width="95.1659" height="95.1659" stroke="#C7BEBE" stroke-opacity="0.4" stroke-width="1.20463"/>
<rect x="476.932" y="381.925" width="95.1659" height="95.1659" stroke="#C7BEBE" stroke-opacity="0.4" stroke-width="1.20463"/>
<rect x="572.097" y="381.925" width="95.1659" height="95.1659" stroke="#C7BEBE" stroke-opacity="0.4" stroke-width="1.20463"/>
<rect x="667.263" y="381.925" width="95.1659" height="95.1659" stroke="#C7BEBE" stroke-opacity="0.4" stroke-width="1.20463"/>
<rect x="762.429" y="381.925" width="95.1659" height="95.1659" stroke="#C7BEBE" stroke-opacity="0.4" stroke-width="1.20463"/>
<rect x="1.10232" y="477.091" width="95.1659" height="95.1659" stroke="#C7BEBE" stroke-opacity="0.4" stroke-width="1.20463"/>
<rect x="96.2681" y="477.091" width="95.1659" height="95.1659" stroke="#C7BEBE" stroke-opacity="0.4" stroke-width="1.20463"/>
<rect x="191.434" y="477.091" width="95.1659" height="95.1659" stroke="#C7BEBE" stroke-opacity="0.4" stroke-width="1.20463"/>
<rect x="286.6" y="477.091" width="95.1659" height="95.1659" stroke="#C7BEBE" stroke-opacity="0.4" stroke-width="1.20463"/>
<rect x="381.766" y="477.091" width="95.1659" height="95.1659" stroke="#C7BEBE" stroke-opacity="0.4" stroke-width="1.20463"/>
<rect x="476.932" y="477.091" width="95.1659" height="95.1659" stroke="#C7BEBE" stroke-opacity="0.4" stroke-width="1.20463"/>
<rect x="572.097" y="477.091" width="95.1659" height="95.1659" stroke="#C7BEBE" stroke-opacity="0.4" stroke-width="1.20463"/>
<rect x="667.263" y="477.091" width="95.1659" height="95.1659" stroke="#C7BEBE" stroke-opacity="0.4" stroke-width="1.20463"/>
<rect x="762.429" y="477.091" width="95.1659" height="95.1659" stroke="#C7BEBE" stroke-opacity="0.4" stroke-width="1.20463"/>
<rect x="1.10232" y="572.257" width="95.1659" height="95.1659" stroke="#C7BEBE" stroke-opacity="0.4" stroke-width="1.20463"/>
<rect x="96.2681" y="572.257" width="95.1659" height="95.1659" stroke="#C7BEBE" stroke-opacity="0.4" stroke-width="1.20463"/>
<rect x="191.434" y="572.257" width="95.1659" height="95.1659" stroke="#C7BEBE" stroke-opacity="0.4" stroke-width="1.20463"/>
<rect x="286.6" y="572.257" width="95.1659" height="95.1659" stroke="#C7BEBE" stroke-opacity="0.4" stroke-width="1.20463"/>
<rect x="381.766" y="572.257" width="95.1659" height="95.1659" stroke="#C7BEBE" stroke-opacity="0.4" stroke-width="1.20463"/>
<rect x="476.932" y="572.257" width="95.1659" height="95.1659" stroke="#C7BEBE" stroke-opacity="0.4" stroke-width="1.20463"/>
<rect x="572.097" y="572.257" width="95.1659" height="95.1659" stroke="#C7BEBE" stroke-opacity="0.4" stroke-width="1.20463"/>
<rect x="667.263" y="572.257" width="95.1659" height="95.1659" stroke="#C7BEBE" stroke-opacity="0.4" stroke-width="1.20463"/>
<rect x="762.429" y="572.257" width="95.1659" height="95.1659" stroke="#C7BEBE" stroke-opacity="0.4" stroke-width="1.20463"/>
</svg>
