<svg width="552" height="320" viewBox="0 0 552 320" fill="none" xmlns="http://www.w3.org/2000/svg">
<rect width="552" height="320" fill="white"/>
<g clip-path="url(#clip0_2032_4106)">
<g clip-path="url(#clip1_2032_4106)">
<mask id="mask0_2032_4106" style="mask-type:luminance" maskUnits="userSpaceOnUse" x="80" y="0" width="392" height="320">
<path d="M452 0H100C88.9543 0 80 8.9543 80 20V300C80 311.046 88.9543 320 100 320H452C463.046 320 472 311.046 472 300V20C472 8.9543 463.046 0 452 0Z" fill="white"/>
</mask>
<g mask="url(#mask0_2032_4106)">
<path d="M452 0H100C88.9543 0 80 8.9543 80 20V300C80 311.046 88.9543 320 100 320H452C463.046 320 472 311.046 472 300V20C472 8.9543 463.046 0 452 0Z" fill="#F6F7F8"/>
<g opacity="0.88">
<path d="M105 33.5C105 32.6716 104.328 32 103.5 32C102.672 32 102 32.6716 102 33.5C102 34.3284 102.672 35 103.5 35C104.328 35 105 34.3284 105 33.5Z" fill="#DAE7E3"/>
<path d="M148 33.5C148 32.6716 147.328 32 146.5 32C145.672 32 145 32.6716 145 33.5C145 34.3284 145.672 35 146.5 35C147.328 35 148 34.3284 148 33.5Z" fill="#DAE7E3"/>
<path d="M191 33.5C191 32.6716 190.328 32 189.5 32C188.672 32 188 32.6716 188 33.5C188 34.3284 188.672 35 189.5 35C190.328 35 191 34.3284 191 33.5Z" fill="#DAE7E3"/>
<path d="M234 33.5C234 32.6716 233.328 32 232.5 32C231.672 32 231 32.6716 231 33.5C231 34.3284 231.672 35 232.5 35C233.328 35 234 34.3284 234 33.5Z" fill="#DAE7E3"/>
<path d="M277 33.5C277 32.6716 276.328 32 275.5 32C274.672 32 274 32.6716 274 33.5C274 34.3284 274.672 35 275.5 35C276.328 35 277 34.3284 277 33.5Z" fill="#DAE7E3"/>
<path d="M320 33.5C320 32.6716 319.328 32 318.5 32C317.672 32 317 32.6716 317 33.5C317 34.3284 317.672 35 318.5 35C319.328 35 320 34.3284 320 33.5Z" fill="#DAE7E3"/>
<path d="M363 33.5C363 32.6716 362.328 32 361.5 32C360.672 32 360 32.6716 360 33.5C360 34.3284 360.672 35 361.5 35C362.328 35 363 34.3284 363 33.5Z" fill="#DAE7E3"/>
<path d="M406 33.5C406 32.6716 405.328 32 404.5 32C403.672 32 403 32.6716 403 33.5C403 34.3284 403.672 35 404.5 35C405.328 35 406 34.3284 406 33.5Z" fill="#DAE7E3"/>
<path d="M449 33.5C449 32.6716 448.328 32 447.5 32C446.672 32 446 32.6716 446 33.5C446 34.3284 446.672 35 447.5 35C448.328 35 449 34.3284 449 33.5Z" fill="#DAE7E3"/>
<path d="M105 76.5C105 75.6716 104.328 75 103.5 75C102.672 75 102 75.6716 102 76.5C102 77.3284 102.672 78 103.5 78C104.328 78 105 77.3284 105 76.5Z" fill="#DAE7E3"/>
<path d="M148 76.5C148 75.6716 147.328 75 146.5 75C145.672 75 145 75.6716 145 76.5C145 77.3284 145.672 78 146.5 78C147.328 78 148 77.3284 148 76.5Z" fill="#DAE7E3"/>
<path d="M191 76.5C191 75.6716 190.328 75 189.5 75C188.672 75 188 75.6716 188 76.5C188 77.3284 188.672 78 189.5 78C190.328 78 191 77.3284 191 76.5Z" fill="#DAE7E3"/>
<path d="M234 76.5C234 75.6716 233.328 75 232.5 75C231.672 75 231 75.6716 231 76.5C231 77.3284 231.672 78 232.5 78C233.328 78 234 77.3284 234 76.5Z" fill="#DAE7E3"/>
<path d="M277 76.5C277 75.6716 276.328 75 275.5 75C274.672 75 274 75.6716 274 76.5C274 77.3284 274.672 78 275.5 78C276.328 78 277 77.3284 277 76.5Z" fill="#DAE7E3"/>
<path d="M320 76.5C320 75.6716 319.328 75 318.5 75C317.672 75 317 75.6716 317 76.5C317 77.3284 317.672 78 318.5 78C319.328 78 320 77.3284 320 76.5Z" fill="#DAE7E3"/>
<path d="M363 76.5C363 75.6716 362.328 75 361.5 75C360.672 75 360 75.6716 360 76.5C360 77.3284 360.672 78 361.5 78C362.328 78 363 77.3284 363 76.5Z" fill="#DAE7E3"/>
<path d="M406 76.5C406 75.6716 405.328 75 404.5 75C403.672 75 403 75.6716 403 76.5C403 77.3284 403.672 78 404.5 78C405.328 78 406 77.3284 406 76.5Z" fill="#DAE7E3"/>
<path d="M449 76.5C449 75.6716 448.328 75 447.5 75C446.672 75 446 75.6716 446 76.5C446 77.3284 446.672 78 447.5 78C448.328 78 449 77.3284 449 76.5Z" fill="#DAE7E3"/>
<path d="M105 119.5C105 118.672 104.328 118 103.5 118C102.672 118 102 118.672 102 119.5C102 120.328 102.672 121 103.5 121C104.328 121 105 120.328 105 119.5Z" fill="#DAE7E3"/>
<path d="M148 119.5C148 118.672 147.328 118 146.5 118C145.672 118 145 118.672 145 119.5C145 120.328 145.672 121 146.5 121C147.328 121 148 120.328 148 119.5Z" fill="#DAE7E3"/>
<path d="M191 119.5C191 118.672 190.328 118 189.5 118C188.672 118 188 118.672 188 119.5C188 120.328 188.672 121 189.5 121C190.328 121 191 120.328 191 119.5Z" fill="#DAE7E3"/>
<path d="M234 119.5C234 118.672 233.328 118 232.5 118C231.672 118 231 118.672 231 119.5C231 120.328 231.672 121 232.5 121C233.328 121 234 120.328 234 119.5Z" fill="#DAE7E3"/>
<path d="M277 119.5C277 118.672 276.328 118 275.5 118C274.672 118 274 118.672 274 119.5C274 120.328 274.672 121 275.5 121C276.328 121 277 120.328 277 119.5Z" fill="#DAE7E3"/>
<path d="M320 119.5C320 118.672 319.328 118 318.5 118C317.672 118 317 118.672 317 119.5C317 120.328 317.672 121 318.5 121C319.328 121 320 120.328 320 119.5Z" fill="#DAE7E3"/>
<path d="M363 119.5C363 118.672 362.328 118 361.5 118C360.672 118 360 118.672 360 119.5C360 120.328 360.672 121 361.5 121C362.328 121 363 120.328 363 119.5Z" fill="#DAE7E3"/>
<path d="M406 119.5C406 118.672 405.328 118 404.5 118C403.672 118 403 118.672 403 119.5C403 120.328 403.672 121 404.5 121C405.328 121 406 120.328 406 119.5Z" fill="#DAE7E3"/>
<path d="M449 119.5C449 118.672 448.328 118 447.5 118C446.672 118 446 118.672 446 119.5C446 120.328 446.672 121 447.5 121C448.328 121 449 120.328 449 119.5Z" fill="#DAE7E3"/>
<path d="M105 162.5C105 161.672 104.328 161 103.5 161C102.672 161 102 161.672 102 162.5C102 163.328 102.672 164 103.5 164C104.328 164 105 163.328 105 162.5Z" fill="#DAE7E3"/>
<path d="M148 162.5C148 161.672 147.328 161 146.5 161C145.672 161 145 161.672 145 162.5C145 163.328 145.672 164 146.5 164C147.328 164 148 163.328 148 162.5Z" fill="#DAE7E3"/>
<path d="M191 162.5C191 161.672 190.328 161 189.5 161C188.672 161 188 161.672 188 162.5C188 163.328 188.672 164 189.5 164C190.328 164 191 163.328 191 162.5Z" fill="#DAE7E3"/>
<path d="M234 162.5C234 161.672 233.328 161 232.5 161C231.672 161 231 161.672 231 162.5C231 163.328 231.672 164 232.5 164C233.328 164 234 163.328 234 162.5Z" fill="#DAE7E3"/>
<path d="M277 162.5C277 161.672 276.328 161 275.5 161C274.672 161 274 161.672 274 162.5C274 163.328 274.672 164 275.5 164C276.328 164 277 163.328 277 162.5Z" fill="#DAE7E3"/>
<path d="M320 162.5C320 161.672 319.328 161 318.5 161C317.672 161 317 161.672 317 162.5C317 163.328 317.672 164 318.5 164C319.328 164 320 163.328 320 162.5Z" fill="#DAE7E3"/>
<path d="M363 162.5C363 161.672 362.328 161 361.5 161C360.672 161 360 161.672 360 162.5C360 163.328 360.672 164 361.5 164C362.328 164 363 163.328 363 162.5Z" fill="#DAE7E3"/>
<path d="M406 162.5C406 161.672 405.328 161 404.5 161C403.672 161 403 161.672 403 162.5C403 163.328 403.672 164 404.5 164C405.328 164 406 163.328 406 162.5Z" fill="#DAE7E3"/>
<path d="M449 162.5C449 161.672 448.328 161 447.5 161C446.672 161 446 161.672 446 162.5C446 163.328 446.672 164 447.5 164C448.328 164 449 163.328 449 162.5Z" fill="#DAE7E3"/>
<path d="M105 205.5C105 204.672 104.328 204 103.5 204C102.672 204 102 204.672 102 205.5C102 206.328 102.672 207 103.5 207C104.328 207 105 206.328 105 205.5Z" fill="#DAE7E3"/>
<path d="M148 205.5C148 204.672 147.328 204 146.5 204C145.672 204 145 204.672 145 205.5C145 206.328 145.672 207 146.5 207C147.328 207 148 206.328 148 205.5Z" fill="#DAE7E3"/>
<path d="M191 205.5C191 204.672 190.328 204 189.5 204C188.672 204 188 204.672 188 205.5C188 206.328 188.672 207 189.5 207C190.328 207 191 206.328 191 205.5Z" fill="#DAE7E3"/>
<path d="M234 205.5C234 204.672 233.328 204 232.5 204C231.672 204 231 204.672 231 205.5C231 206.328 231.672 207 232.5 207C233.328 207 234 206.328 234 205.5Z" fill="#DAE7E3"/>
<path d="M277 205.5C277 204.672 276.328 204 275.5 204C274.672 204 274 204.672 274 205.5C274 206.328 274.672 207 275.5 207C276.328 207 277 206.328 277 205.5Z" fill="#DAE7E3"/>
<path d="M320 205.5C320 204.672 319.328 204 318.5 204C317.672 204 317 204.672 317 205.5C317 206.328 317.672 207 318.5 207C319.328 207 320 206.328 320 205.5Z" fill="#DAE7E3"/>
<path d="M363 205.5C363 204.672 362.328 204 361.5 204C360.672 204 360 204.672 360 205.5C360 206.328 360.672 207 361.5 207C362.328 207 363 206.328 363 205.5Z" fill="#DAE7E3"/>
<path d="M406 205.5C406 204.672 405.328 204 404.5 204C403.672 204 403 204.672 403 205.5C403 206.328 403.672 207 404.5 207C405.328 207 406 206.328 406 205.5Z" fill="#DAE7E3"/>
<path d="M449 205.5C449 204.672 448.328 204 447.5 204C446.672 204 446 204.672 446 205.5C446 206.328 446.672 207 447.5 207C448.328 207 449 206.328 449 205.5Z" fill="#DAE7E3"/>
<path d="M105 248.5C105 247.672 104.328 247 103.5 247C102.672 247 102 247.672 102 248.5C102 249.328 102.672 250 103.5 250C104.328 250 105 249.328 105 248.5Z" fill="#DAE7E3"/>
<path d="M148 248.5C148 247.672 147.328 247 146.5 247C145.672 247 145 247.672 145 248.5C145 249.328 145.672 250 146.5 250C147.328 250 148 249.328 148 248.5Z" fill="#DAE7E3"/>
<path d="M191 248.5C191 247.672 190.328 247 189.5 247C188.672 247 188 247.672 188 248.5C188 249.328 188.672 250 189.5 250C190.328 250 191 249.328 191 248.5Z" fill="#DAE7E3"/>
<path d="M234 248.5C234 247.672 233.328 247 232.5 247C231.672 247 231 247.672 231 248.5C231 249.328 231.672 250 232.5 250C233.328 250 234 249.328 234 248.5Z" fill="#DAE7E3"/>
<path d="M277 248.5C277 247.672 276.328 247 275.5 247C274.672 247 274 247.672 274 248.5C274 249.328 274.672 250 275.5 250C276.328 250 277 249.328 277 248.5Z" fill="#DAE7E3"/>
<path d="M320 248.5C320 247.672 319.328 247 318.5 247C317.672 247 317 247.672 317 248.5C317 249.328 317.672 250 318.5 250C319.328 250 320 249.328 320 248.5Z" fill="#DAE7E3"/>
<path d="M363 248.5C363 247.672 362.328 247 361.5 247C360.672 247 360 247.672 360 248.5C360 249.328 360.672 250 361.5 250C362.328 250 363 249.328 363 248.5Z" fill="#DAE7E3"/>
<path d="M406 248.5C406 247.672 405.328 247 404.5 247C403.672 247 403 247.672 403 248.5C403 249.328 403.672 250 404.5 250C405.328 250 406 249.328 406 248.5Z" fill="#DAE7E3"/>
<path d="M449 248.5C449 247.672 448.328 247 447.5 247C446.672 247 446 247.672 446 248.5C446 249.328 446.672 250 447.5 250C448.328 250 449 249.328 449 248.5Z" fill="#DAE7E3"/>
<path d="M105 291.5C105 290.672 104.328 290 103.5 290C102.672 290 102 290.672 102 291.5C102 292.328 102.672 293 103.5 293C104.328 293 105 292.328 105 291.5Z" fill="#DAE7E3"/>
<path d="M148 291.5C148 290.672 147.328 290 146.5 290C145.672 290 145 290.672 145 291.5C145 292.328 145.672 293 146.5 293C147.328 293 148 292.328 148 291.5Z" fill="#DAE7E3"/>
<path d="M191 291.5C191 290.672 190.328 290 189.5 290C188.672 290 188 290.672 188 291.5C188 292.328 188.672 293 189.5 293C190.328 293 191 292.328 191 291.5Z" fill="#DAE7E3"/>
<path d="M234 291.5C234 290.672 233.328 290 232.5 290C231.672 290 231 290.672 231 291.5C231 292.328 231.672 293 232.5 293C233.328 293 234 292.328 234 291.5Z" fill="#DAE7E3"/>
<path d="M277 291.5C277 290.672 276.328 290 275.5 290C274.672 290 274 290.672 274 291.5C274 292.328 274.672 293 275.5 293C276.328 293 277 292.328 277 291.5Z" fill="#DAE7E3"/>
<path d="M320 291.5C320 290.672 319.328 290 318.5 290C317.672 290 317 290.672 317 291.5C317 292.328 317.672 293 318.5 293C319.328 293 320 292.328 320 291.5Z" fill="#DAE7E3"/>
<path d="M363 291.5C363 290.672 362.328 290 361.5 290C360.672 290 360 290.672 360 291.5C360 292.328 360.672 293 361.5 293C362.328 293 363 292.328 363 291.5Z" fill="#DAE7E3"/>
<path d="M406 291.5C406 290.672 405.328 290 404.5 290C403.672 290 403 290.672 403 291.5C403 292.328 403.672 293 404.5 293C405.328 293 406 292.328 406 291.5Z" fill="#DAE7E3"/>
<path d="M449 291.5C449 290.672 448.328 290 447.5 290C446.672 290 446 290.672 446 291.5C446 292.328 446.672 293 447.5 293C448.328 293 449 292.328 449 291.5Z" fill="#DAE7E3"/>
</g>
</g>
</g>
</g>
<g clip-path="url(#clip2_2032_4106)">
<g clip-path="url(#clip3_2032_4106)">
<g clip-path="url(#clip4_2032_4106)">
<g clip-path="url(#clip5_2032_4106)">
<path d="M0 48H264V272H0V48Z" fill="white"/>
<path opacity="0.4" d="M25.2011 122.525H24.0981V121.005H21.1631V119.938L24.1161 115.899H25.2001V120.016H26.0951V121.006H25.2001V122.526L25.2011 122.525ZM22.1271 120.137C22.3582 120.055 22.6018 120.014 22.8471 120.015H24.0981V118.07C24.0981 117.926 24.1011 117.807 24.1081 117.714C24.1181 117.616 24.1451 117.491 24.1851 117.341L24.0811 117.306C23.9591 117.509 23.8351 117.703 23.7081 117.888L22.5961 119.46C22.4452 119.671 22.2704 119.863 22.0751 120.033L22.1271 120.137Z" fill="#002E25"/>
<path d="M35.1709 119.091H242.723" stroke="#F3F7F6" stroke-width="0.868" stroke-linecap="round" stroke-dasharray="5.21 5.21"/>
<path opacity="0.4" d="M23.6731 147.577C23.1871 147.577 22.7581 147.49 22.3881 147.317C22.0354 147.148 21.7351 146.887 21.5191 146.561C21.3061 146.216 21.1865 145.821 21.1721 145.415H22.2751C22.3671 146.219 22.8391 146.622 23.6901 146.622C24.0721 146.622 24.3701 146.523 24.5851 146.326C24.8051 146.124 24.9151 145.849 24.9151 145.501C24.9151 145.137 24.7851 144.871 24.5241 144.702C24.2691 144.529 23.9161 144.442 23.4641 144.442H23.0651V143.522H23.4301C23.7481 143.522 24.0121 143.44 24.2201 143.278C24.4341 143.116 24.5411 142.882 24.5411 142.575C24.5411 142.303 24.4541 142.089 24.2811 141.932C24.1131 141.776 23.8731 141.698 23.5601 141.698C23.2411 141.698 22.9841 141.788 22.7871 141.967C22.5901 142.147 22.4711 142.416 22.4311 142.775H21.3981C21.4211 142.375 21.5281 142.022 21.7181 141.715C21.9101 141.408 22.1651 141.171 22.4831 141.003C22.8147 140.828 23.185 140.738 23.5601 140.743C23.9651 140.743 24.3211 140.821 24.6281 140.977C24.9411 141.127 25.1811 141.339 25.3481 141.611C25.5231 141.877 25.6091 142.181 25.6091 142.523C25.6091 142.876 25.5091 143.177 25.3051 143.426C25.21 143.547 25.0885 143.644 24.95 143.71C24.8115 143.776 24.6596 143.81 24.5061 143.808V143.947C24.9701 143.97 25.3341 144.127 25.6011 144.416C25.8731 144.706 26.0091 145.076 26.0091 145.528C26.0091 145.927 25.9101 146.283 25.7141 146.596C25.5092 146.909 25.2202 147.159 24.8801 147.316C24.5034 147.495 24.0902 147.585 23.6731 147.577Z" fill="#002E25"/>
<path d="M35.1709 144.039H242.723" stroke="#F3F7F6" stroke-width="0.868" stroke-linecap="round" stroke-dasharray="5.21 5.21"/>
<path opacity="0.4" d="M21.302 172.42V171.552L23.395 169.745C23.829 169.375 24.151 169.033 24.359 168.721C24.567 168.408 24.672 168.081 24.672 167.739C24.672 167.398 24.582 167.131 24.402 166.94C24.222 166.744 23.954 166.645 23.595 166.645C22.807 166.645 22.388 167.123 22.335 168.078H21.302C21.331 167.325 21.542 166.741 21.936 166.324C22.336 165.907 22.891 165.699 23.603 165.699C24.014 165.699 24.379 165.78 24.698 165.942C25.022 166.098 25.271 166.324 25.444 166.619C25.624 166.914 25.714 167.259 25.714 167.652C25.7147 168.173 25.557 168.682 25.262 169.111C24.9315 169.596 24.5373 170.034 24.09 170.414L23.282 171.109C23.1223 171.25 22.951 171.378 22.77 171.491L22.822 171.595C22.972 171.531 23.091 171.488 23.178 171.465C23.265 171.442 23.372 171.43 23.499 171.43H26.009V172.42H21.302Z" fill="#002E25"/>
<path d="M35.1709 168.986H242.723" stroke="#F3F7F6" stroke-width="0.868" stroke-linecap="round" stroke-dasharray="5.21 5.21"/>
<path opacity="0.4" d="M23.708 192.678C23.708 192.452 23.737 192.241 23.794 192.044L23.69 192.001C23.569 192.215 23.421 192.391 23.247 192.53C23.0423 192.705 22.8145 192.852 22.57 192.965C22.321 193.08 22.09 193.156 21.875 193.19V192.166C22.2855 192.082 22.6696 191.9 22.995 191.636C23.325 191.37 23.575 191.071 23.742 190.741H24.811V197.367H23.708V192.678Z" fill="#002E25"/>
<path d="M35.1709 193.933H242.723" stroke="#F3F7F6" stroke-width="0.868" stroke-linecap="round" stroke-dasharray="5.21 5.21"/>
<path opacity="0.4" d="M23.647 222.419C22.883 222.419 22.292 222.138 21.875 221.577C21.458 221.015 21.25 220.153 21.25 218.989C21.25 217.831 21.453 216.974 21.858 216.418C22.268 215.863 22.851 215.585 23.603 215.585C24.368 215.585 24.955 215.865 25.366 216.427C25.783 216.989 25.991 217.854 25.991 219.024C25.991 220.176 25.786 221.03 25.375 221.585C24.97 222.141 24.394 222.419 23.647 222.419ZM23.621 221.429C24.026 221.429 24.339 221.241 24.559 220.865C24.779 220.488 24.889 219.872 24.889 219.015C24.889 218.146 24.776 217.521 24.55 217.139C24.324 216.757 24.006 216.566 23.595 216.566C23.189 216.566 22.88 216.757 22.665 217.139C22.457 217.521 22.353 218.141 22.353 218.998C22.353 219.866 22.46 220.488 22.674 220.865C22.894 221.241 23.21 221.429 23.621 221.429Z" fill="#002E25"/>
<path d="M35.1709 218.881H242.723" stroke="#F3F7F6" stroke-width="0.868" stroke-linecap="round" stroke-dasharray="5.21 5.21"/>
<path d="M222.75 110.525V225.157" stroke="#F3F7F6" stroke-width="0.868"/>
<path opacity="0.4" d="M222.492 244.217C222.035 244.217 221.601 244.142 221.19 243.991C220.784 243.841 220.44 243.601 220.156 243.271C219.878 242.941 219.71 242.518 219.652 242.003H220.773C220.871 242.454 221.08 242.779 221.398 242.975C221.722 243.172 222.093 243.271 222.51 243.271C222.909 243.271 223.227 243.187 223.465 243.019C223.702 242.851 223.821 242.602 223.821 242.272C223.821 242.029 223.746 241.835 223.595 241.69C223.442 241.54 223.254 241.43 223.048 241.369C222.749 241.272 222.444 241.191 222.136 241.126C221.739 241.044 221.347 240.937 220.964 240.804C220.666 240.696 220.4 240.514 220.191 240.275C219.982 240.031 219.878 239.699 219.878 239.276C219.878 238.876 219.977 238.535 220.173 238.251C220.373 237.96 220.654 237.733 220.981 237.6C221.355 237.444 221.757 237.367 222.162 237.374C222.822 237.374 223.39 237.545 223.864 237.886C224.345 238.228 224.637 238.732 224.741 239.397H223.638C223.552 239.033 223.375 238.764 223.109 238.59C222.842 238.41 222.521 238.321 222.145 238.321C221.786 238.321 221.502 238.396 221.294 238.546C221.193 238.617 221.111 238.712 221.057 238.823C221.002 238.934 220.976 239.057 220.981 239.18C220.981 239.395 221.048 239.565 221.181 239.693C221.32 239.82 221.493 239.919 221.702 239.988C221.91 240.052 222.194 240.124 222.553 240.205C223.062 240.315 223.473 240.431 223.786 240.552C224.099 240.668 224.365 240.859 224.585 241.126C224.811 241.386 224.924 241.745 224.924 242.202C224.924 242.822 224.71 243.314 224.281 243.679C223.858 244.038 223.262 244.217 222.492 244.217Z" fill="#002E25"/>
<path d="M194.961 110.525V225.157" stroke="#F3F7F6" stroke-width="0.868"/>
<path opacity="0.4" d="M194.703 244.217C194.245 244.217 193.811 244.142 193.4 243.991C192.995 243.841 192.65 243.601 192.367 243.271C192.089 242.941 191.921 242.518 191.863 242.003H192.983C193.082 242.454 193.29 242.779 193.609 242.975C193.933 243.172 194.303 243.271 194.72 243.271C195.12 243.271 195.438 243.187 195.675 243.019C195.913 242.851 196.031 242.602 196.031 242.272C196.031 242.029 195.956 241.835 195.806 241.69C195.653 241.54 195.465 241.43 195.259 241.369C194.96 241.272 194.655 241.191 194.347 241.126C193.949 241.044 193.558 240.937 193.174 240.804C192.876 240.696 192.61 240.514 192.401 240.275C192.193 240.031 192.089 239.699 192.089 239.276C192.089 238.876 192.187 238.535 192.384 238.251C192.581 237.962 192.85 237.745 193.192 237.6C193.566 237.444 193.968 237.367 194.373 237.374C195.033 237.374 195.6 237.545 196.075 237.886C196.555 238.228 196.848 238.732 196.952 239.397H195.849C195.762 239.033 195.586 238.764 195.319 238.59C195.053 238.41 194.732 238.321 194.355 238.321C193.996 238.321 193.713 238.396 193.504 238.546C193.403 238.617 193.322 238.712 193.267 238.823C193.213 238.934 193.187 239.057 193.192 239.18C193.192 239.395 193.258 239.565 193.391 239.693C193.53 239.82 193.704 239.919 193.912 239.988C194.121 240.052 194.405 240.124 194.764 240.205C195.273 240.315 195.684 240.431 195.997 240.552C196.309 240.668 196.576 240.859 196.796 241.126C197.021 241.386 197.134 241.745 197.134 242.202C197.134 242.822 196.92 243.314 196.492 243.679C196.069 244.038 195.473 244.217 194.703 244.217Z" fill="#002E25"/>
<path d="M167.171 110.525V225.157" stroke="#F3F7F6" stroke-width="0.868"/>
<path opacity="0.4" d="M165.84 244.104H164.737V237.478H169.123V238.468H165.84V240.292H168.758V241.273H165.84V244.104Z" fill="#002E25"/>
<path d="M139.382 110.525V225.157" stroke="#F3F7F6" stroke-width="0.868"/>
<path opacity="0.4" d="M139.495 244.104H138.392V238.468H136.308V237.478H141.597V238.468H139.495V244.104Z" fill="#002E25"/>
<path d="M111.593 110.525V225.157" stroke="#F3F7F6" stroke-width="0.868"/>
<path opacity="0.4" d="M108.338 244.104L106.523 237.478H107.678L108.919 242.176C108.977 242.367 109.015 242.515 109.032 242.619C109.056 242.718 109.067 242.825 109.067 242.941H109.206C109.206 242.819 109.215 242.706 109.232 242.602C109.249 242.498 109.281 242.356 109.328 242.176L110.5 237.478H111.811L112.984 242.176C113.03 242.35 113.062 242.492 113.079 242.602C113.102 242.706 113.114 242.819 113.114 242.941H113.253C113.252 242.833 113.261 242.725 113.279 242.619C113.302 242.521 113.34 242.373 113.392 242.176L114.634 237.478H115.789L113.982 244.104H112.428L111.299 239.545C111.253 239.331 111.229 239.113 111.229 238.894H111.091C111.091 239.125 111.064 239.342 111.012 239.545L109.883 244.104H108.338Z" fill="#002E25"/>
<path d="M83.803 110.525V225.157" stroke="#F3F7F6" stroke-width="0.868"/>
<path opacity="0.4" d="M83.917 244.104H82.814V238.468H80.729V237.478H86.019V238.468H83.917V244.104Z" fill="#002E25"/>
<path d="M56.0139 110.525V225.157" stroke="#F3F7F6" stroke-width="0.868"/>
<path opacity="0.4" d="M52.2061 244.104V237.478H54.0731L55.3411 241.916C55.3991 242.107 55.4391 242.286 55.4621 242.454C55.4921 242.616 55.5061 242.81 55.5061 243.036H55.6451C55.6451 242.81 55.6561 242.616 55.6791 242.454C55.7091 242.286 55.7521 242.107 55.8091 241.916L57.0781 237.478H58.9451V244.104H57.8421V239.363C57.8421 239.056 57.8591 238.729 57.8941 238.381L57.7541 238.364C57.7004 238.701 57.6252 239.035 57.5291 239.363L56.1141 244.104H55.0371L53.6211 239.363C53.5249 239.035 53.4495 238.701 53.3951 238.364L53.2651 238.381C53.2951 238.729 53.3091 239.056 53.3091 239.363V244.104H52.2061Z" fill="#002E25"/>
<path d="M56.447 191.834L78.201 172.68C79.7867 171.284 81.8271 170.513 83.94 170.513C86.0529 170.513 88.0933 171.284 89.679 172.68L104.14 185.414C108.028 188.837 114.03 188.117 116.997 183.871L129.987 165.285C133.886 159.705 142.396 160.577 145.084 166.831L156.744 193.966C159.974 201.482 170.855 200.772 173.08 192.9L185.855 147.702C188.214 139.358 199.999 139.242 202.521 147.537L214.8 187.924C217.169 195.715 227.993 196.255 231.125 188.738L242.725 160.895" stroke="#002E25" stroke-width="1.737" stroke-linecap="round"/>
<path d="M78.2 172.68L59.392 189.241C58.4665 190.056 57.7252 191.059 57.2174 192.182C56.7096 193.306 56.447 194.525 56.447 195.758V207.79C56.447 210.093 57.3619 212.302 58.9905 213.931C60.6191 215.559 62.8279 216.474 65.131 216.474H234.474C236.777 216.474 238.986 215.559 240.615 213.931C242.243 212.302 243.158 210.093 243.158 207.79V160.461L231.157 188.925C228.001 196.412 217.21 195.851 214.846 188.077L202.521 147.537C199.999 139.242 188.214 139.358 185.855 147.702L173.08 192.9C170.855 200.772 159.974 201.482 156.744 193.966L145.084 166.831C142.396 160.577 133.886 159.705 129.987 165.285L116.997 183.871C114.03 188.117 108.028 188.837 104.14 185.414L89.678 172.68C88.0924 171.284 86.0522 170.514 83.9395 170.514C81.8269 170.514 79.7857 171.284 78.2 172.68Z" fill="url(#paint0_linear_2032_4106)" fill-opacity="0.16"/>
<g filter="url(#filter0_d_2032_4106)">
<path d="M139.816 166.974C142.694 166.974 145.027 164.641 145.027 161.763C145.027 158.885 142.694 156.552 139.816 156.552C136.938 156.552 134.605 158.885 134.605 161.763C134.605 164.641 136.938 166.974 139.816 166.974Z" fill="white"/>
</g>
<path d="M139.816 163.501C140.775 163.501 141.553 162.723 141.553 161.764C141.553 160.805 140.775 160.027 139.816 160.027C138.857 160.027 138.079 160.805 138.079 161.764C138.079 162.723 138.857 163.501 139.816 163.501Z" fill="black"/>
<path d="M157.92 122.684H115.5C113.581 122.684 112.026 124.239 112.026 126.158V147.157C112.026 149.076 113.581 150.631 115.5 150.631H157.92C159.839 150.631 161.394 149.076 161.394 147.157V126.158C161.394 124.239 159.839 122.684 157.92 122.684Z" fill="#CFEEDD"/>
<path d="M123.436 134.27V132.623H123.968V134.269L123.436 134.27ZM123.436 140.668V138.938H123.968V140.668H123.436ZM123.666 139.448C123.27 139.448 122.922 139.407 122.624 139.324C122.354 139.248 122.1 139.124 121.873 138.959C121.682 138.818 121.526 138.636 121.415 138.427C121.317 138.215 121.267 137.984 121.269 137.75V137.656C121.275 137.636 121.278 137.615 121.279 137.594H122.53V137.677C122.53 137.846 122.593 138.01 122.707 138.135C122.829 138.253 122.98 138.335 123.145 138.375C123.5 138.464 123.87 138.471 124.228 138.395C124.376 138.363 124.514 138.3 124.635 138.209C124.688 138.169 124.73 138.117 124.759 138.057C124.788 137.997 124.803 137.931 124.802 137.865C124.802 137.684 124.732 137.545 124.593 137.448C124.424 137.337 124.237 137.256 124.041 137.208C123.802 137.141 123.562 137.075 123.322 137.01C123.091 136.947 122.861 136.878 122.634 136.802C122.415 136.73 122.205 136.632 122.009 136.51C121.828 136.392 121.675 136.235 121.561 136.051C121.443 135.838 121.386 135.596 121.394 135.353C121.394 135.083 121.453 134.846 121.571 134.644C121.691 134.44 121.86 134.268 122.061 134.144C122.287 133.997 122.538 133.892 122.801 133.832C123.105 133.76 123.416 133.725 123.728 133.727C124.055 133.727 124.35 133.762 124.614 133.832C124.885 133.902 125.118 134.002 125.312 134.134C125.514 134.259 125.667 134.415 125.771 134.603C125.909 134.827 125.964 135.092 125.927 135.353V135.437H124.687V135.364C124.69 135.241 124.646 135.121 124.562 135.03C124.471 134.922 124.352 134.843 124.218 134.8C124.041 134.739 123.854 134.711 123.666 134.717C123.499 134.717 123.353 134.731 123.228 134.759C123.119 134.781 123.013 134.82 122.915 134.874C122.845 134.917 122.785 134.973 122.738 135.04C122.697 135.102 122.675 135.175 122.676 135.249C122.676 135.381 122.728 135.485 122.832 135.562C122.936 135.638 123.075 135.704 123.249 135.76L123.832 135.937C124.083 136.007 124.34 136.079 124.604 136.156C124.868 136.225 125.111 136.316 125.333 136.426C125.555 136.531 125.746 136.694 125.885 136.896C126.024 137.096 126.094 137.364 126.094 137.698C126.094 138.018 126.031 138.292 125.906 138.521C125.788 138.744 125.611 138.931 125.396 139.063C125.18 139.195 124.923 139.293 124.624 139.355C124.309 139.42 123.988 139.45 123.666 139.448ZM126.813 140.158V139.813C126.813 139.501 126.869 139.216 126.98 138.959C127.091 138.702 127.24 138.469 127.428 138.261C127.615 138.045 127.824 137.844 128.053 137.656C128.289 137.462 128.526 137.277 128.762 137.104C129.054 136.888 129.328 136.674 129.585 136.458C129.842 136.235 130.051 135.999 130.21 135.749C130.37 135.492 130.45 135.207 130.45 134.895C130.45 134.749 130.415 134.603 130.346 134.457C130.27 134.304 130.15 134.177 130.002 134.092C129.849 133.995 129.641 133.946 129.377 133.946C129.113 133.946 128.894 133.991 128.72 134.082C128.553 134.159 128.414 134.287 128.324 134.447C128.241 134.607 128.199 134.804 128.199 135.04V135.468H126.928C126.906 135.33 126.896 135.191 126.896 135.051C126.896 134.537 127.011 134.123 127.24 133.811C127.477 133.491 127.786 133.258 128.168 133.113C128.557 132.96 128.977 132.883 129.429 132.883C129.901 132.883 130.287 132.953 130.585 133.092C130.891 133.231 131.127 133.408 131.294 133.623C131.468 133.839 131.586 134.068 131.648 134.311C131.812 134.831 131.786 135.392 131.575 135.895C131.459 136.174 131.301 136.434 131.107 136.666C130.889 136.917 130.648 137.148 130.387 137.354C130.117 137.569 129.825 137.788 129.512 138.01C129.352 138.122 129.196 138.233 129.043 138.344C128.901 138.446 128.765 138.558 128.637 138.677C128.536 138.776 128.448 138.888 128.376 139.011H131.794V140.157L126.813 140.158ZM132.901 141.856V141.324C133.06 141.304 133.206 141.23 133.318 141.116C133.422 141.005 133.498 140.866 133.547 140.699C133.604 140.524 133.632 140.341 133.63 140.157H132.984V138.823H134.297V140.043C134.297 140.445 134.231 140.773 134.099 141.023C133.974 141.273 133.804 141.46 133.589 141.585C133.379 141.717 133.145 141.81 132.901 141.856ZM137.995 140.282C137.397 140.282 136.911 140.189 136.536 140.001C136.16 139.813 135.886 139.563 135.712 139.251C135.539 138.931 135.452 138.581 135.452 138.198C135.452 137.809 135.542 137.468 135.723 137.177C135.91 136.878 136.206 136.649 136.609 136.489C136.306 136.337 136.053 136.102 135.879 135.812C135.719 135.526 135.636 135.202 135.639 134.874C135.639 134.506 135.726 134.172 135.9 133.874C136.074 133.574 136.334 133.334 136.682 133.154C137.036 132.974 137.474 132.884 137.995 132.884C138.516 132.884 138.95 132.974 139.297 133.154C139.645 133.334 139.905 133.574 140.079 133.874C140.259 134.172 140.35 134.506 140.35 134.874C140.35 135.214 140.266 135.527 140.1 135.812C139.94 136.09 139.697 136.315 139.37 136.489C139.78 136.649 140.075 136.879 140.256 137.177C140.437 137.469 140.527 137.809 140.527 138.198C140.527 138.58 140.44 138.931 140.266 139.251C140.093 139.563 139.818 139.813 139.443 140.001C139.075 140.189 138.592 140.282 137.995 140.282ZM137.995 139.251C138.391 139.251 138.693 139.153 138.901 138.959C139.11 138.757 139.214 138.483 139.214 138.135C139.214 137.781 139.11 137.507 138.901 137.312C138.693 137.118 138.391 137.021 137.995 137.021C137.599 137.021 137.293 137.118 137.078 137.312C136.869 137.507 136.765 137.782 136.765 138.135C136.765 138.483 136.869 138.757 137.078 138.959C137.293 139.153 137.599 139.251 137.995 139.251ZM137.995 135.989C138.328 135.989 138.589 135.902 138.776 135.729C138.971 135.548 139.068 135.291 139.068 134.957C139.068 134.631 138.971 134.377 138.776 134.197C138.589 134.009 138.328 133.915 137.995 133.915C137.654 133.915 137.39 134.009 137.203 134.196C137.015 134.377 136.921 134.631 136.921 134.957C136.921 135.291 137.015 135.547 137.203 135.728C137.39 135.902 137.654 135.989 137.995 135.989ZM143.686 140.282C143.165 140.282 142.741 140.185 142.415 139.991C142.1 139.802 141.849 139.522 141.696 139.188C141.54 138.83 141.462 138.443 141.467 138.052H142.759C142.759 138.302 142.79 138.518 142.853 138.698C142.922 138.872 143.03 139.008 143.176 139.105C143.322 139.195 143.509 139.24 143.738 139.24C144.079 139.24 144.332 139.15 144.499 138.97C144.673 138.782 144.787 138.518 144.843 138.177C144.906 137.83 144.94 137.423 144.947 136.958C144.87 137.045 144.783 137.122 144.687 137.188C144.525 137.308 144.346 137.402 144.155 137.468C143.915 137.556 143.661 137.599 143.405 137.594C142.905 137.594 142.495 137.493 142.175 137.291C141.858 137.086 141.609 136.792 141.456 136.447C141.299 136.064 141.221 135.652 141.227 135.238C141.227 134.752 141.331 134.335 141.54 133.988C141.741 133.641 142.037 133.358 142.394 133.175C142.773 132.976 143.196 132.876 143.624 132.883C144.034 132.883 144.402 132.943 144.728 133.061C145.055 133.179 145.333 133.373 145.562 133.644C145.791 133.908 145.965 134.266 146.083 134.717C146.201 135.162 146.26 135.714 146.26 136.374C146.26 137.111 146.201 137.733 146.083 138.24C145.972 138.74 145.805 139.14 145.583 139.438C145.382 139.725 145.104 139.949 144.78 140.084C144.432 140.221 144.06 140.289 143.686 140.282ZM143.697 136.572C143.961 136.572 144.18 136.517 144.353 136.406C144.527 136.287 144.655 136.128 144.739 135.926C144.822 135.725 144.864 135.496 144.864 135.238C144.864 134.988 144.822 134.766 144.739 134.572C144.663 134.379 144.528 134.214 144.353 134.102C144.18 133.984 143.961 133.925 143.697 133.925C143.433 133.925 143.214 133.985 143.04 134.103C142.871 134.223 142.741 134.389 142.665 134.582C142.579 134.794 142.536 135.02 142.54 135.249C142.54 135.506 142.582 135.735 142.665 135.937C142.748 136.131 142.873 136.287 143.04 136.406C143.214 136.516 143.433 136.572 143.697 136.572ZM149.576 140.282C149.187 140.282 148.84 140.227 148.534 140.116C148.224 139.994 147.953 139.789 147.753 139.522C147.537 139.244 147.374 138.868 147.263 138.396C147.152 137.916 147.096 137.312 147.096 136.583C147.096 135.853 147.152 135.253 147.263 134.78C147.374 134.3 147.537 133.922 147.753 133.644C147.952 133.378 148.223 133.175 148.534 133.06C148.868 132.937 149.221 132.877 149.576 132.883C149.965 132.883 150.309 132.943 150.608 133.061C150.914 133.171 151.174 133.366 151.389 133.644C151.605 133.922 151.768 134.301 151.879 134.78C151.99 135.252 152.046 135.853 152.046 136.583C152.046 137.313 151.99 137.917 151.879 138.396C151.768 138.868 151.605 139.244 151.389 139.522C151.189 139.788 150.918 139.994 150.608 140.115C150.277 140.232 149.927 140.288 149.576 140.282ZM149.576 139.24C149.903 139.24 150.146 139.153 150.306 138.98C150.472 138.799 150.584 138.535 150.639 138.188C150.702 137.833 150.733 137.396 150.733 136.875V136.333C150.733 135.798 150.702 135.353 150.639 134.999C150.584 134.638 150.472 134.37 150.306 134.196C150.146 134.016 149.903 133.926 149.576 133.926C149.257 133.926 149.01 134.016 148.836 134.196C148.67 134.37 148.555 134.634 148.492 134.988C148.431 135.423 148.403 135.862 148.409 136.301V136.843C148.409 137.371 148.437 137.816 148.492 138.177C148.555 138.531 148.67 138.799 148.836 138.98C149.01 139.153 149.257 139.24 149.576 139.24Z" fill="#005242"/>
<path d="M136.711 153.236L134.105 150.631H139.316L136.711 153.236Z" fill="#CFEEDD"/>
<path d="M232.737 81.868L228.829 77.96H236.645L232.737 81.868Z" fill="#002E25"/>
<path d="M32.5376 77.6172C32.4912 77.183 32.2957 76.8449 31.951 76.603C31.6096 76.361 31.1655 76.2401 30.6186 76.2401C30.2341 76.2401 29.9044 76.2981 29.6293 76.4141C29.3542 76.5301 29.1437 76.6875 28.9979 76.8864C28.852 77.0852 28.7775 77.3123 28.7741 77.5675C28.7741 77.7796 28.8222 77.9635 28.9183 78.1193C29.0178 78.2751 29.152 78.4077 29.321 78.517C29.4901 78.6231 29.6773 78.7126 29.8828 78.7855C30.0883 78.8584 30.2955 78.9197 30.5043 78.9695L31.4588 79.2081C31.8433 79.2976 32.2128 79.4186 32.5675 79.571C32.9254 79.7235 33.2453 79.9157 33.527 80.1477C33.812 80.3797 34.0374 80.6598 34.2031 80.9879C34.3688 81.3161 34.4517 81.7005 34.4517 82.1413C34.4517 82.7379 34.2992 83.2633 33.9943 83.7173C33.6894 84.1681 33.2486 84.5211 32.6719 84.7763C32.0985 85.0282 31.4041 85.1541 30.5888 85.1541C29.7966 85.1541 29.1089 85.0315 28.5256 84.7862C27.9455 84.541 27.4915 84.183 27.1634 83.7124C26.8385 83.2417 26.6629 82.6683 26.6364 81.9922H28.451C28.4775 82.3468 28.5869 82.6418 28.7791 82.8771C28.9714 83.1125 29.2216 83.2881 29.5298 83.4041C29.8414 83.5201 30.1894 83.5781 30.5739 83.5781C30.9749 83.5781 31.3262 83.5185 31.6278 83.3991C31.9328 83.2765 32.1714 83.1075 32.3438 82.892C32.5161 82.6733 32.6039 82.4181 32.6072 82.1264C32.6039 81.8613 32.526 81.6425 32.3736 81.4702C32.2211 81.2945 32.0073 81.1487 31.7322 81.0327C31.4605 80.9134 31.1423 80.8073 30.7777 80.7145L29.6193 80.4162C28.7808 80.2008 28.1179 79.8743 27.6307 79.4368C27.1468 78.996 26.9048 78.411 26.9048 77.6818C26.9048 77.0819 27.0672 76.5566 27.392 76.1058C27.7202 75.6551 28.166 75.3054 28.7294 75.0568C29.2929 74.8049 29.9309 74.679 30.6435 74.679C31.366 74.679 31.9991 74.8049 32.5426 75.0568C33.0895 75.3054 33.5187 75.6518 33.8303 76.0959C34.1418 76.5367 34.3026 77.0438 34.3125 77.6172H32.5376ZM38.214 85.1541C37.7301 85.1541 37.2942 85.0679 36.9064 84.8956C36.522 84.7199 36.217 84.4614 35.9917 84.12C35.7696 83.7786 35.6586 83.3577 35.6586 82.8572C35.6586 82.4264 35.7381 82.0701 35.8972 81.7884C36.0563 81.5066 36.2734 81.2812 36.5485 81.1122C36.8236 80.9432 37.1335 80.8156 37.4782 80.7294C37.8262 80.6399 38.1858 80.5753 38.557 80.5355C39.0044 80.4891 39.3674 80.4477 39.6458 80.4112C39.9242 80.3714 40.1264 80.3118 40.2523 80.2322C40.3816 80.1494 40.4462 80.0218 40.4462 79.8494V79.8196C40.4462 79.4451 40.3352 79.1551 40.1131 78.9496C39.891 78.7441 39.5712 78.6413 39.1536 78.6413C38.7128 78.6413 38.3631 78.7375 38.1046 78.9297C37.8494 79.1219 37.677 79.349 37.5875 79.6108L35.9071 79.3722C36.0397 78.9081 36.2585 78.5204 36.5634 78.2088C36.8683 77.8939 37.2412 77.6586 37.682 77.5028C38.1228 77.3438 38.61 77.2642 39.1436 77.2642C39.5115 77.2642 39.8778 77.3073 40.2424 77.3935C40.6069 77.4796 40.94 77.6222 41.2417 77.821C41.5433 78.0166 41.7852 78.2834 41.9675 78.6214C42.1531 78.9595 42.2459 79.3821 42.2459 79.8892V85H40.5158V83.951H40.4561C40.3468 84.1631 40.1926 84.362 39.9938 84.5476C39.7982 84.7299 39.5513 84.8774 39.253 84.9901C38.958 85.0994 38.6117 85.1541 38.214 85.1541ZM38.6813 83.8317C39.0426 83.8317 39.3558 83.7604 39.6209 83.6179C39.8861 83.4721 40.0899 83.2798 40.2324 83.0412C40.3783 82.8026 40.4512 82.5424 40.4512 82.2607V81.3608C40.3948 81.4072 40.2987 81.4503 40.1628 81.4901C40.0302 81.5298 39.8811 81.5646 39.7154 81.5945C39.5497 81.6243 39.3856 81.6508 39.2232 81.674C39.0608 81.6972 38.9199 81.7171 38.8006 81.7337C38.5321 81.7701 38.2918 81.8298 38.0797 81.9126C37.8676 81.9955 37.7002 82.1115 37.5776 82.2607C37.455 82.4065 37.3936 82.5954 37.3936 82.8274C37.3936 83.1589 37.5146 83.4091 37.7566 83.5781C37.9985 83.7472 38.3068 83.8317 38.6813 83.8317ZM45.8553 74.8182V85H44.0556V74.8182H45.8553ZM51.0866 85.1491C50.321 85.1491 49.6598 84.9901 49.103 84.6719C48.5495 84.3504 48.1236 83.8963 47.8253 83.3097C47.527 82.7197 47.3778 82.0253 47.3778 81.2266C47.3778 80.4411 47.527 79.7517 47.8253 79.1584C48.1269 78.5618 48.5478 78.0978 49.0881 77.7663C49.6283 77.4316 50.263 77.2642 50.9922 77.2642C51.4628 77.2642 51.907 77.3404 52.3246 77.4929C52.7455 77.642 53.1167 77.8741 53.4382 78.1889C53.763 78.5038 54.0182 78.9048 54.2038 79.392C54.3894 79.8759 54.4822 80.4527 54.4822 81.1222V81.674H48.223V80.4609H52.7571C52.7538 80.1162 52.6792 79.8097 52.5334 79.5412C52.3875 79.2694 52.1837 79.0556 51.9219 78.8999C51.6634 78.7441 51.3617 78.6662 51.017 78.6662C50.6491 78.6662 50.326 78.7557 50.0476 78.9347C49.7692 79.1103 49.5521 79.3423 49.3963 79.6307C49.2438 79.9157 49.166 80.2289 49.1626 80.5703V81.6293C49.1626 82.0734 49.2438 82.4545 49.4062 82.7727C49.5687 83.0876 49.7957 83.3295 50.0874 83.4986C50.379 83.6643 50.7204 83.7472 51.1115 83.7472C51.3733 83.7472 51.6103 83.7107 51.8224 83.6378C52.0346 83.5616 52.2185 83.4505 52.3743 83.3047C52.5301 83.1589 52.6477 82.9782 52.7273 82.7628L54.4077 82.9517C54.3016 83.3958 54.0994 83.7836 53.8011 84.1151C53.5062 84.4432 53.1283 84.6984 52.6676 84.8807C52.2069 85.0597 51.6799 85.1491 51.0866 85.1491ZM62.0403 79.3821L60.3997 79.5611C60.3533 79.3954 60.2721 79.2396 60.1561 79.0938C60.0434 78.9479 59.8909 78.8303 59.6987 78.7408C59.5065 78.6513 59.2711 78.6065 58.9927 78.6065C58.6182 78.6065 58.3033 78.6877 58.0481 78.8501C57.7962 79.0125 57.6719 79.223 57.6752 79.4815C57.6719 79.7036 57.7531 79.8842 57.9189 80.0234C58.0879 80.1626 58.3663 80.277 58.7541 80.3665L60.0566 80.6449C60.7792 80.8007 61.3161 81.0476 61.6674 81.3857C62.0221 81.7237 62.2011 82.1662 62.2044 82.7131C62.2011 83.1937 62.0602 83.6179 61.7818 83.9858C61.5067 84.3504 61.1239 84.6354 60.6333 84.8409C60.1428 85.0464 59.5794 85.1491 58.943 85.1491C58.0083 85.1491 57.256 84.9536 56.6859 84.5625C56.1158 84.1681 55.7761 83.6196 55.6667 82.9169L57.4217 82.7479C57.5012 83.0926 57.6703 83.3527 57.9288 83.5284C58.1873 83.7041 58.5237 83.7919 58.938 83.7919C59.3656 83.7919 59.7086 83.7041 59.9672 83.5284C60.229 83.3527 60.3599 83.1357 60.3599 82.8771C60.3599 82.6584 60.2754 82.4777 60.1064 82.3352C59.9406 82.1927 59.6821 82.0833 59.3308 82.0071L58.0282 81.7337C57.2958 81.5812 56.7538 81.3243 56.4025 80.9631C56.0512 80.5985 55.8772 80.1378 55.8805 79.581C55.8772 79.1103 56.0048 78.7027 56.2633 78.358C56.5252 78.0099 56.8881 77.7415 57.3521 77.5526C57.8194 77.3603 58.358 77.2642 58.9679 77.2642C59.8627 77.2642 60.5671 77.4548 61.0808 77.8359C61.5978 78.2171 61.9177 78.7325 62.0403 79.3821ZM67.2406 85V74.8182H71.0588C71.841 74.8182 72.4972 74.9541 73.0275 75.2259C73.5611 75.4976 73.9638 75.8788 74.2356 76.3693C74.5107 76.8565 74.6483 77.425 74.6483 78.0746C74.6483 78.7275 74.5091 79.2943 74.2306 79.7749C73.9556 80.2521 73.5495 80.6217 73.0126 80.8835C72.4757 81.142 71.8161 81.2713 71.0339 81.2713H68.3145V79.7401H70.7853C71.2427 79.7401 71.6172 79.6771 71.9089 79.5511C72.2006 79.4219 72.416 79.2346 72.5552 78.9893C72.6977 78.7408 72.769 78.4358 72.769 78.0746C72.769 77.7133 72.6977 77.4051 72.5552 77.1499C72.4127 76.8913 72.1956 76.6958 71.9039 76.5632C71.6123 76.4273 71.2361 76.3594 70.7754 76.3594H69.085V85H67.2406ZM72.5005 80.3864L75.0211 85H72.9629L70.487 80.3864H72.5005ZM79.5378 85.1491C78.7722 85.1491 78.111 84.9901 77.5542 84.6719C77.0007 84.3504 76.5748 83.8963 76.2765 83.3097C75.9782 82.7197 75.829 82.0253 75.829 81.2266C75.829 80.4411 75.9782 79.7517 76.2765 79.1584C76.5781 78.5618 76.999 78.0978 77.5392 77.7663C78.0795 77.4316 78.7142 77.2642 79.4434 77.2642C79.914 77.2642 80.3581 77.3404 80.7757 77.4929C81.1967 77.642 81.5679 77.8741 81.8894 78.1889C82.2142 78.5038 82.4694 78.9048 82.655 79.392C82.8406 79.8759 82.9334 80.4527 82.9334 81.1222V81.674H76.6742V80.4609H81.2083C81.205 80.1162 81.1304 79.8097 80.9846 79.5412C80.8387 79.2694 80.6349 79.0556 80.373 78.8999C80.1145 78.7441 79.8129 78.6662 79.4682 78.6662C79.1003 78.6662 78.7772 78.7557 78.4988 78.9347C78.2203 79.1103 78.0033 79.3423 77.8475 79.6307C77.695 79.9157 77.6171 80.2289 77.6138 80.5703V81.6293C77.6138 82.0734 77.695 82.4545 77.8574 82.7727C78.0198 83.0876 78.2469 83.3295 78.5385 83.4986C78.8302 83.6643 79.1716 83.7472 79.5627 83.7472C79.8245 83.7472 80.0615 83.7107 80.2736 83.6378C80.4857 83.5616 80.6697 83.4505 80.8255 83.3047C80.9812 83.1589 81.0989 82.9782 81.1784 82.7628L82.8588 82.9517C82.7528 83.3958 82.5506 83.7836 82.2523 84.1151C81.9573 84.4432 81.5795 84.6984 81.1188 84.8807C80.6581 85.0597 80.1311 85.1491 79.5378 85.1491ZM84.456 87.8636V77.3636H86.2259V78.6264H86.3303C86.4231 78.4408 86.554 78.2436 86.723 78.0348C86.892 77.8227 87.1207 77.642 87.4091 77.4929C87.6974 77.3404 88.0653 77.2642 88.5128 77.2642C89.1027 77.2642 89.6347 77.415 90.1087 77.7166C90.5859 78.0149 90.9638 78.4574 91.2422 79.044C91.5239 79.6274 91.6648 80.3433 91.6648 81.1918C91.6648 82.0303 91.5272 82.7429 91.2521 83.3295C90.977 83.9162 90.6025 84.3636 90.1286 84.6719C89.6546 84.9801 89.1177 85.1342 88.5178 85.1342C88.0803 85.1342 87.7173 85.0613 87.429 84.9155C87.1406 84.7696 86.9086 84.594 86.733 84.3885C86.5606 84.1797 86.4264 83.9825 86.3303 83.7969H86.2557V87.8636H84.456ZM86.2209 81.1818C86.2209 81.6757 86.2905 82.1082 86.4297 82.4794C86.5722 82.8506 86.776 83.1406 87.0412 83.3494C87.3097 83.5549 87.6345 83.6577 88.0156 83.6577C88.4134 83.6577 88.7464 83.5516 89.0149 83.3395C89.2834 83.1241 89.4856 82.8307 89.6214 82.4595C89.7607 82.085 89.8303 81.6591 89.8303 81.1818C89.8303 80.7079 89.7623 80.2869 89.6264 79.919C89.4905 79.5511 89.2884 79.2628 89.0199 79.054C88.7514 78.8452 88.4167 78.7408 88.0156 78.7408C87.6312 78.7408 87.3047 78.8419 87.0362 79.044C86.7678 79.2462 86.5639 79.5296 86.4247 79.8942C86.2888 80.2588 86.2209 80.688 86.2209 81.1818ZM96.5369 85.1491C95.7912 85.1491 95.1449 84.9851 94.598 84.657C94.0511 84.3288 93.6269 83.8698 93.3253 83.2798C93.027 82.6899 92.8778 82.0005 92.8778 81.2116C92.8778 80.4228 93.027 79.7318 93.3253 79.1385C93.6269 78.5452 94.0511 78.0845 94.598 77.7564C95.1449 77.4283 95.7912 77.2642 96.5369 77.2642C97.2827 77.2642 97.929 77.4283 98.4759 77.7564C99.0227 78.0845 99.4453 78.5452 99.7436 79.1385C100.045 79.7318 100.196 80.4228 100.196 81.2116C100.196 82.0005 100.045 82.6899 99.7436 83.2798C99.4453 83.8698 99.0227 84.3288 98.4759 84.657C97.929 84.9851 97.2827 85.1491 96.5369 85.1491ZM96.5469 83.7074C96.9512 83.7074 97.2893 83.5964 97.5611 83.3743C97.8329 83.1489 98.035 82.8473 98.1676 82.4695C98.3035 82.0916 98.3714 81.6707 98.3714 81.2067C98.3714 80.7393 98.3035 80.3168 98.1676 79.9389C98.035 79.5578 97.8329 79.2545 97.5611 79.0291C97.2893 78.8037 96.9512 78.6911 96.5469 78.6911C96.1326 78.6911 95.7879 78.8037 95.5128 79.0291C95.241 79.2545 95.0372 79.5578 94.9013 79.9389C94.7687 80.3168 94.7024 80.7393 94.7024 81.2067C94.7024 81.6707 94.7687 82.0916 94.9013 82.4695C95.0372 82.8473 95.241 83.1489 95.5128 83.3743C95.7879 83.5964 96.1326 83.7074 96.5469 83.7074ZM101.724 85V77.3636H103.469V78.6364H103.548C103.687 78.1955 103.926 77.8558 104.264 77.6172C104.605 77.3752 104.995 77.2543 105.432 77.2543C105.532 77.2543 105.643 77.2592 105.765 77.2692C105.891 77.2758 105.996 77.2874 106.079 77.304V78.9595C106.002 78.933 105.881 78.9098 105.716 78.8899C105.553 78.8667 105.396 78.8551 105.243 78.8551C104.915 78.8551 104.62 78.9264 104.358 79.0689C104.1 79.2081 103.896 79.402 103.747 79.6506C103.598 79.8991 103.523 80.1858 103.523 80.5107V85H101.724ZM111.498 77.3636V78.7557H107.108V77.3636H111.498ZM108.192 75.5341H109.991V82.7031C109.991 82.9451 110.028 83.1307 110.101 83.2599C110.177 83.3859 110.276 83.4721 110.399 83.5185C110.522 83.5649 110.657 83.5881 110.807 83.5881C110.919 83.5881 111.022 83.5798 111.115 83.5632C111.211 83.5466 111.284 83.5317 111.334 83.5185L111.637 84.9254C111.541 84.9586 111.403 84.995 111.224 85.0348C111.049 85.0746 110.833 85.0978 110.578 85.1044C110.127 85.1177 109.721 85.0497 109.36 84.9006C108.999 84.7481 108.712 84.5128 108.5 84.1946C108.291 83.8764 108.188 83.4787 108.192 83.0014V75.5341Z" fill="black"/>
</g>
</g>
</g>
<rect x="0.5" y="48.5" width="263" height="223" rx="11.5" stroke="#EBECEF"/>
</g>
<g clip-path="url(#clip6_2032_4106)">
<g clip-path="url(#clip7_2032_4106)">
<g clip-path="url(#clip8_2032_4106)">
<g clip-path="url(#clip9_2032_4106)">
<path d="M288 48H552V272H288V48Z" fill="white"/>
<path d="M309.004 92V81.8182H312.902C313.638 81.8182 314.249 81.9342 314.737 82.1662C315.227 82.3949 315.593 82.7081 315.835 83.1058C316.08 83.5036 316.203 83.9543 316.203 84.4581C316.203 84.8724 316.124 85.227 315.964 85.522C315.805 85.8137 315.592 86.0507 315.323 86.233C315.055 86.4152 314.755 86.5462 314.423 86.6257V86.7251C314.785 86.745 315.131 86.8561 315.462 87.0582C315.797 87.2571 316.071 87.5388 316.283 87.9034C316.495 88.268 316.601 88.7088 316.601 89.2259C316.601 89.7528 316.473 90.2268 316.218 90.6477C315.963 91.0653 315.578 91.3951 315.065 91.6371C314.551 91.879 313.905 92 313.126 92H309.004ZM310.849 90.4588H312.832C313.502 90.4588 313.984 90.3312 314.279 90.076C314.577 89.8175 314.727 89.486 314.727 89.0817C314.727 88.7801 314.652 88.5083 314.503 88.2663C314.354 88.0211 314.142 87.8288 313.866 87.6896C313.591 87.5471 313.263 87.4759 312.882 87.4759H310.849V90.4588ZM310.849 86.1484H312.673C312.991 86.1484 313.278 86.0904 313.533 85.9744C313.789 85.8551 313.989 85.6877 314.135 85.4723C314.284 85.2536 314.359 84.995 314.359 84.6967C314.359 84.3023 314.219 83.9775 313.941 83.7223C313.666 83.4671 313.257 83.3395 312.713 83.3395H310.849V86.1484ZM320.323 92.1541C319.839 92.1541 319.404 92.0679 319.016 91.8956C318.631 91.7199 318.326 91.4614 318.101 91.12C317.879 90.7786 317.768 90.3577 317.768 89.8572C317.768 89.4264 317.847 89.0701 318.007 88.7884C318.166 88.5066 318.383 88.2812 318.658 88.1122C318.933 87.9432 319.243 87.8156 319.588 87.7294C319.936 87.6399 320.295 87.5753 320.666 87.5355C321.114 87.4891 321.477 87.4477 321.755 87.4112C322.034 87.3714 322.236 87.3118 322.362 87.2322C322.491 87.1494 322.556 87.0218 322.556 86.8494V86.8196C322.556 86.4451 322.445 86.1551 322.222 85.9496C322 85.7441 321.681 85.6413 321.263 85.6413C320.822 85.6413 320.472 85.7375 320.214 85.9297C319.959 86.1219 319.786 86.349 319.697 86.6108L318.017 86.3722C318.149 85.9081 318.368 85.5204 318.673 85.2088C318.978 84.8939 319.351 84.6586 319.791 84.5028C320.232 84.3438 320.719 84.2642 321.253 84.2642C321.621 84.2642 321.987 84.3073 322.352 84.3935C322.716 84.4796 323.049 84.6222 323.351 84.821C323.653 85.0166 323.895 85.2834 324.077 85.6214C324.262 85.9595 324.355 86.3821 324.355 86.8892V92H322.625V90.951H322.566C322.456 91.1631 322.302 91.362 322.103 91.5476C321.908 91.7299 321.661 91.8774 321.362 91.9901C321.067 92.0994 320.721 92.1541 320.323 92.1541ZM320.791 90.8317C321.152 90.8317 321.465 90.7604 321.73 90.6179C321.995 90.4721 322.199 90.2798 322.342 90.0412C322.488 89.8026 322.561 89.5424 322.561 89.2607V88.3608C322.504 88.4072 322.408 88.4503 322.272 88.4901C322.14 88.5298 321.99 88.5646 321.825 88.5945C321.659 88.6243 321.495 88.6508 321.333 88.674C321.17 88.6972 321.029 88.7171 320.91 88.7337C320.642 88.7701 320.401 88.8298 320.189 88.9126C319.977 88.9955 319.81 89.1115 319.687 89.2607C319.564 89.4065 319.503 89.5954 319.503 89.8274C319.503 90.1589 319.624 90.4091 319.866 90.5781C320.108 90.7472 320.416 90.8317 320.791 90.8317ZM327.965 81.8182V92H326.165V81.8182H327.965ZM332.013 92.1541C331.529 92.1541 331.093 92.0679 330.705 91.8956C330.321 91.7199 330.016 91.4614 329.79 91.12C329.568 90.7786 329.457 90.3577 329.457 89.8572C329.457 89.4264 329.537 89.0701 329.696 88.7884C329.855 88.5066 330.072 88.2812 330.347 88.1122C330.622 87.9432 330.932 87.8156 331.277 87.7294C331.625 87.6399 331.985 87.5753 332.356 87.5355C332.803 87.4891 333.166 87.4477 333.445 87.4112C333.723 87.3714 333.925 87.3118 334.051 87.2322C334.18 87.1494 334.245 87.0218 334.245 86.8494V86.8196C334.245 86.4451 334.134 86.1551 333.912 85.9496C333.69 85.7441 333.37 85.6413 332.952 85.6413C332.512 85.6413 332.162 85.7375 331.903 85.9297C331.648 86.1219 331.476 86.349 331.386 86.6108L329.706 86.3722C329.839 85.9081 330.057 85.5204 330.362 85.2088C330.667 84.8939 331.04 84.6586 331.481 84.5028C331.922 84.3438 332.409 84.2642 332.942 84.2642C333.31 84.2642 333.677 84.3073 334.041 84.3935C334.406 84.4796 334.739 84.6222 335.04 84.821C335.342 85.0166 335.584 85.2834 335.766 85.6214C335.952 85.9595 336.045 86.3821 336.045 86.8892V92H334.315V90.951H334.255C334.146 91.1631 333.991 91.362 333.793 91.5476C333.597 91.7299 333.35 91.8774 333.052 91.9901C332.757 92.0994 332.411 92.1541 332.013 92.1541ZM332.48 90.8317C332.841 90.8317 333.155 90.7604 333.42 90.6179C333.685 90.4721 333.889 90.2798 334.031 90.0412C334.177 89.8026 334.25 89.5424 334.25 89.2607V88.3608C334.194 88.4072 334.098 88.4503 333.962 88.4901C333.829 88.5298 333.68 88.5646 333.514 88.5945C333.348 88.6243 333.184 88.6508 333.022 88.674C332.86 88.6972 332.719 88.7171 332.599 88.7337C332.331 88.7701 332.091 88.8298 331.879 88.9126C331.666 88.9955 331.499 89.1115 331.376 89.2607C331.254 89.4065 331.192 89.5954 331.192 89.8274C331.192 90.1589 331.313 90.4091 331.555 90.5781C331.797 90.7472 332.106 90.8317 332.48 90.8317ZM339.654 87.5256V92H337.854V84.3636H339.575V85.6612H339.664C339.84 85.2337 340.12 84.8939 340.504 84.642C340.892 84.3902 341.371 84.2642 341.941 84.2642C342.468 84.2642 342.927 84.3769 343.318 84.6023C343.713 84.8277 344.018 85.1541 344.233 85.5817C344.452 86.0092 344.559 86.5279 344.556 87.1378V92H342.756V87.4162C342.756 86.9058 342.624 86.5064 342.359 86.218C342.097 85.9297 341.734 85.7855 341.27 85.7855C340.955 85.7855 340.675 85.8551 340.43 85.9943C340.188 86.1302 339.997 86.3274 339.858 86.5859C339.722 86.8445 339.654 87.1577 339.654 87.5256ZM349.717 92.1491C348.954 92.1491 348.3 91.9818 347.753 91.647C347.209 91.3123 346.79 90.8499 346.495 90.2599C346.203 89.6667 346.058 88.9839 346.058 88.2116C346.058 87.4361 346.207 86.7517 346.505 86.1584C346.803 85.5618 347.224 85.0978 347.768 84.7663C348.315 84.4316 348.961 84.2642 349.707 84.2642C350.326 84.2642 350.875 84.3786 351.352 84.6072C351.833 84.8326 352.216 85.1525 352.501 85.5668C352.786 85.9777 352.948 86.4583 352.988 87.0085H351.268C351.198 86.6406 351.032 86.334 350.771 86.0888C350.512 85.8402 350.166 85.7159 349.732 85.7159C349.364 85.7159 349.04 85.8153 348.762 86.0142C348.484 86.2098 348.267 86.4915 348.111 86.8594C347.958 87.2273 347.882 87.6681 347.882 88.1818C347.882 88.7022 347.958 89.1496 348.111 89.5241C348.263 89.8954 348.477 90.1821 348.752 90.3842C349.031 90.5831 349.357 90.6825 349.732 90.6825C349.997 90.6825 350.234 90.6328 350.442 90.5334C350.655 90.4306 350.832 90.2831 350.974 90.0909C351.117 89.8987 351.215 89.665 351.268 89.3899H352.988C352.945 89.9302 352.786 90.4091 352.511 90.8267C352.236 91.241 351.861 91.5658 351.387 91.8011C350.913 92.0331 350.356 92.1491 349.717 92.1491ZM357.846 92.1491C357.081 92.1491 356.42 91.9901 355.863 91.6719C355.309 91.3504 354.883 90.8963 354.585 90.3097C354.287 89.7197 354.138 89.0253 354.138 88.2266C354.138 87.4411 354.287 86.7517 354.585 86.1584C354.887 85.5618 355.308 85.0978 355.848 84.7663C356.388 84.4316 357.023 84.2642 357.752 84.2642C358.223 84.2642 358.667 84.3404 359.084 84.4929C359.505 84.642 359.876 84.8741 360.198 85.1889C360.523 85.5038 360.778 85.9048 360.964 86.392C361.149 86.8759 361.242 87.4527 361.242 88.1222V88.674H354.983V87.4609H359.517C359.514 87.1162 359.439 86.8097 359.293 86.5412C359.147 86.2694 358.943 86.0556 358.682 85.8999C358.423 85.7441 358.122 85.6662 357.777 85.6662C357.409 85.6662 357.086 85.7557 356.807 85.9347C356.529 86.1103 356.312 86.3423 356.156 86.6307C356.004 86.9157 355.926 87.2289 355.922 87.5703V88.6293C355.922 89.0734 356.004 89.4545 356.166 89.7727C356.328 90.0876 356.555 90.3295 356.847 90.4986C357.139 90.6643 357.48 90.7472 357.871 90.7472C358.133 90.7472 358.37 90.7107 358.582 90.6378C358.794 90.5616 358.978 90.4505 359.134 90.3047C359.29 90.1589 359.407 89.9782 359.487 89.7628L361.167 89.9517C361.061 90.3958 360.859 90.7836 360.561 91.1151C360.266 91.4432 359.888 91.6984 359.427 91.8807C358.967 92.0597 358.44 92.1491 357.846 92.1491Z" fill="black"/>
<path d="M513.585 68.936H451.672C442.018 68.936 434.193 76.7614 434.193 86.4145C434.193 96.0676 442.018 103.893 451.672 103.893H513.585C523.238 103.893 531.064 96.0676 531.064 86.4145C531.064 76.7614 523.238 68.936 513.585 68.936Z" fill="#002E25"/>
<path d="M456.3 90.914V82.032H459.465C460.154 82.032 460.725 82.151 461.179 82.388C461.635 82.625 461.976 82.953 462.202 83.372C462.428 83.789 462.54 84.27 462.54 84.816C462.54 85.36 462.426 85.839 462.198 86.252C461.972 86.662 461.631 86.982 461.174 87.21C460.72 87.439 460.149 87.553 459.461 87.553H457.063V86.4H459.34C459.773 86.4 460.126 86.337 460.398 86.213C460.673 86.089 460.873 85.908 461.001 85.671C461.128 85.434 461.192 85.149 461.192 84.816C461.199 84.514 461.132 84.2148 460.996 83.945C460.864 83.6948 460.652 83.4961 460.394 83.381C460.122 83.248 459.765 83.181 459.322 83.181H457.64V90.914H456.3ZM460.684 86.907L462.879 90.914H461.352L459.201 86.907H460.684ZM466.781 91.049C466.125 91.049 465.559 90.909 465.085 90.628C464.613 90.3438 464.234 89.9296 463.992 89.435C463.738 88.921 463.611 88.318 463.611 87.627C463.611 86.944 463.738 86.343 463.992 85.823C464.23 85.3245 464.603 84.9023 465.068 84.604C465.531 84.312 466.071 84.166 466.69 84.166C467.066 84.166 467.43 84.228 467.783 84.353C468.136 84.477 468.452 84.672 468.733 84.938C469.013 85.204 469.234 85.549 469.396 85.974C469.558 86.397 469.639 86.91 469.639 87.514V87.974H464.344V87.002H468.368C468.368 86.662 468.299 86.359 468.16 86.096C468.027 85.8363 467.824 85.6186 467.575 85.467C467.31 85.3095 467.007 85.2298 466.699 85.237C466.334 85.237 466.016 85.327 465.745 85.507C465.479 85.679 465.264 85.9181 465.12 86.2C464.975 86.4861 464.9 86.803 464.903 87.124V87.883C464.903 88.328 464.981 88.707 465.137 89.019C465.296 89.331 465.518 89.569 465.801 89.734C466.084 89.896 466.415 89.977 466.794 89.977C467.04 89.977 467.264 89.943 467.466 89.873C467.669 89.801 467.844 89.694 467.991 89.553C468.138 89.411 468.251 89.236 468.329 89.028L469.557 89.248C469.462 89.6036 469.28 89.93 469.027 90.198C468.762 90.4766 468.438 90.6919 468.078 90.828C467.663 90.9814 467.223 91.057 466.781 91.049ZM475.996 85.879L474.821 86.087C474.769 85.9309 474.69 85.7853 474.587 85.657C474.474 85.5141 474.328 85.4 474.162 85.324C473.95 85.2308 473.72 85.1864 473.489 85.194C473.122 85.194 472.816 85.276 472.57 85.441C472.324 85.603 472.201 85.812 472.201 86.07C472.201 86.292 472.284 86.472 472.449 86.608C472.613 86.744 472.879 86.855 473.247 86.942L474.305 87.184C474.918 87.326 475.374 87.544 475.675 87.839C475.976 88.134 476.126 88.517 476.126 88.989C476.126 89.388 476.011 89.743 475.779 90.055C475.551 90.365 475.231 90.608 474.821 90.784C474.413 90.96 473.94 91.048 473.403 91.048C472.657 91.048 472.048 90.889 471.577 90.571C471.106 90.251 470.816 89.795 470.71 89.205L471.963 89.015C472.041 89.341 472.201 89.588 472.444 89.756C472.687 89.921 473.004 90.003 473.394 90.003C473.819 90.003 474.159 89.915 474.413 89.739C474.668 89.559 474.795 89.341 474.795 89.084C474.797 88.9847 474.777 88.8862 474.736 88.7955C474.696 88.7048 474.636 88.6241 474.561 88.559C474.407 88.417 474.172 88.311 473.854 88.239L472.726 87.991C472.105 87.849 471.645 87.624 471.347 87.315C471.052 87.005 470.905 86.613 470.905 86.139C470.905 85.746 471.015 85.402 471.234 85.107C471.454 84.812 471.758 84.582 472.145 84.417C472.567 84.2428 473.02 84.1574 473.476 84.166C474.196 84.166 474.763 84.322 475.176 84.634C475.59 84.944 475.863 85.359 475.996 85.879ZM480.35 91.049C479.693 91.049 479.128 90.909 478.654 90.628C478.182 90.3441 477.803 89.9298 477.561 89.435C477.307 88.921 477.179 88.318 477.179 87.627C477.179 86.944 477.307 86.343 477.561 85.823C477.799 85.3242 478.172 84.9019 478.637 84.604C479.099 84.312 479.64 84.166 480.259 84.166C480.634 84.166 480.999 84.228 481.351 84.353C481.704 84.477 482.021 84.672 482.301 84.938C482.582 85.204 482.803 85.549 482.965 85.974C483.127 86.397 483.208 86.91 483.208 87.514V87.974H477.912V87.002H481.937C481.937 86.662 481.867 86.359 481.729 86.096C481.596 85.836 481.393 85.6182 481.143 85.467C480.879 85.3093 480.575 85.2295 480.267 85.237C479.903 85.237 479.585 85.327 479.313 85.507C479.048 85.6791 478.832 85.9181 478.689 86.2C478.544 86.4861 478.469 86.803 478.472 87.124V87.883C478.472 88.328 478.55 88.707 478.706 89.019C478.865 89.331 479.086 89.569 479.369 89.734C479.653 89.896 479.984 89.977 480.363 89.977C480.608 89.977 480.832 89.943 481.035 89.873C481.231 89.8048 481.41 89.6957 481.56 89.553C481.707 89.411 481.82 89.236 481.898 89.028L483.125 89.248C483.03 89.6035 482.848 89.93 482.596 90.198C482.331 90.4766 482.006 90.6919 481.646 90.828C481.232 90.9814 480.792 91.057 480.35 91.049ZM484.573 90.914V84.253H485.826V85.311H485.896C486.017 84.952 486.231 84.671 486.538 84.465C486.847 84.2559 487.214 84.147 487.587 84.153C487.753 84.1507 487.918 84.1726 488.077 84.218C488.222 84.261 488.349 84.321 488.459 84.396L488.042 85.48C487.958 85.4402 487.869 85.4096 487.778 85.389C487.668 85.3615 487.554 85.3484 487.44 85.35C487.139 85.35 486.87 85.415 486.633 85.545C486.403 85.6685 486.21 85.8516 486.074 86.075C485.936 86.3082 485.865 86.5751 485.87 86.846V90.914H484.573ZM495.148 84.253L492.732 90.914H491.344L488.924 84.253H490.316L492.003 89.379H492.073L493.756 84.253H495.148ZM498.937 91.048C498.281 91.048 497.716 90.908 497.242 90.628C496.77 90.3444 496.39 89.93 496.149 89.435C495.894 88.921 495.767 88.318 495.767 87.627C495.767 86.944 495.894 86.343 496.149 85.823C496.406 85.303 496.765 84.896 497.224 84.604C497.687 84.312 498.228 84.166 498.846 84.166C499.222 84.166 499.586 84.228 499.939 84.353C500.292 84.477 500.608 84.672 500.889 84.938C501.169 85.204 501.391 85.549 501.552 85.974C501.714 86.397 501.795 86.91 501.795 87.514V87.974H496.5V87.002H500.525C500.525 86.662 500.455 86.359 500.316 86.096C500.184 85.8359 499.981 85.618 499.731 85.467C499.466 85.3095 499.163 85.2298 498.855 85.237C498.491 85.237 498.173 85.327 497.901 85.507C497.636 85.6793 497.42 85.9183 497.276 86.2C497.131 86.4863 497.057 86.8032 497.06 87.124V87.883C497.06 88.328 497.138 88.707 497.294 89.019C497.453 89.331 497.674 89.569 497.957 89.734C498.241 89.896 498.572 89.977 498.95 89.977C499.196 89.977 499.42 89.943 499.623 89.873C499.821 89.8061 500.002 89.6952 500.151 89.5488C500.301 89.4023 500.415 89.2239 500.486 89.027L501.713 89.249C501.618 89.6045 501.436 89.931 501.184 90.199C500.918 90.4769 500.594 90.6915 500.234 90.827C499.819 90.9807 499.379 91.0557 498.937 91.048ZM505.654 91.044C505.144 91.0519 504.643 90.9085 504.215 90.632C503.795 90.355 503.466 89.96 503.226 89.448C502.989 88.934 502.87 88.316 502.87 87.596C502.87 86.876 502.99 86.261 503.23 85.749C503.473 85.237 503.805 84.845 504.228 84.574C504.656 84.3002 505.155 84.1583 505.663 84.166C506.077 84.166 506.409 84.236 506.661 84.374C506.915 84.51 507.112 84.669 507.25 84.851C507.392 85.033 507.502 85.194 507.58 85.333H507.658V82.033H508.955V90.914H507.688V89.878H507.58C507.481 90.049 507.368 90.2112 507.242 90.363C507.077 90.5614 506.873 90.7238 506.643 90.84C506.389 90.976 506.059 91.044 505.654 91.044ZM505.941 89.938C506.314 89.938 506.629 89.84 506.886 89.643C507.146 89.443 507.343 89.168 507.476 88.815C507.612 88.462 507.68 88.052 507.68 87.583C507.68 87.121 507.613 86.716 507.48 86.369C507.366 86.0488 507.163 85.7678 506.895 85.559C506.637 85.364 506.319 85.268 505.941 85.268C505.55 85.268 505.225 85.368 504.965 85.571C504.705 85.774 504.508 86.05 504.375 86.4C504.24 86.7795 504.174 87.1802 504.18 87.583C504.18 88.029 504.246 88.429 504.379 88.785C504.512 89.14 504.709 89.422 504.969 89.63C505.232 89.836 505.556 89.938 505.941 89.938Z" fill="white"/>
<path d="M308.936 124.392H531.064" stroke="#EBECEF" stroke-width="0.872"/>
<path d="M314.128 154.935V151.627H315.195V154.935H314.128ZM314.128 167.79V164.314H315.195V167.79H314.128ZM314.588 165.34C313.793 165.34 313.095 165.256 312.495 165.089C311.895 164.907 311.392 164.663 310.987 164.356C310.604 164.074 310.29 163.709 310.067 163.288C309.87 162.862 309.769 162.397 309.773 161.928V161.739C309.784 161.698 309.791 161.656 309.793 161.614H312.306V161.781C312.32 162.158 312.439 162.465 312.662 162.702C312.885 162.926 313.179 163.086 313.542 163.184C314.255 163.362 315 163.376 315.719 163.226C316.054 163.142 316.326 163.016 316.535 162.849C316.641 162.768 316.726 162.663 316.785 162.543C316.843 162.423 316.872 162.291 316.87 162.158C316.87 161.795 316.73 161.516 316.451 161.32C316.172 161.125 315.802 160.965 315.341 160.839C314.895 160.713 314.414 160.581 313.897 160.441C313.437 160.316 312.977 160.176 312.516 160.022C312.075 159.878 311.653 159.682 311.259 159.436C310.896 159.198 310.588 158.884 310.359 158.515C310.136 158.138 310.024 157.671 310.024 157.112C310.024 156.568 310.143 156.094 310.38 155.689C310.622 155.279 310.96 154.934 311.364 154.684C311.819 154.389 312.322 154.177 312.85 154.056C313.461 153.912 314.087 153.841 314.714 153.846C315.37 153.846 315.963 153.916 316.494 154.056C316.993 154.176 317.467 154.381 317.896 154.663C318.301 154.914 318.608 155.228 318.817 155.605C319.094 156.055 319.205 156.588 319.131 157.112V157.28H316.64V157.133C316.647 156.885 316.557 156.645 316.389 156.463C316.235 156.268 316.005 156.115 315.698 156.003C315.405 155.891 315.035 155.835 314.588 155.835C314.253 155.835 313.96 155.863 313.708 155.919C313.458 155.975 313.248 156.052 313.081 156.149C312.94 156.235 312.819 156.349 312.725 156.484C312.642 156.608 312.598 156.754 312.599 156.903C312.599 157.168 312.704 157.378 312.913 157.531C313.123 157.685 313.402 157.817 313.751 157.929C314.114 158.041 314.504 158.159 314.923 158.285C315.441 158.428 315.957 158.575 316.473 158.724C316.979 158.855 317.47 159.037 317.938 159.269C318.398 159.492 318.768 159.806 319.048 160.211C319.327 160.616 319.466 161.153 319.466 161.823C319.466 162.465 319.34 163.016 319.089 163.477C318.851 163.925 318.497 164.3 318.064 164.565C317.631 164.831 317.114 165.026 316.514 165.152C315.88 165.282 315.235 165.345 314.588 165.34ZM325.978 167.015C325.154 167.015 324.414 166.896 323.758 166.659C323.117 166.423 322.548 166.027 322.104 165.508C321.644 164.963 321.294 164.244 321.058 163.351C320.82 162.444 320.702 161.327 320.702 160.002C320.702 158.508 320.813 157.259 321.037 156.254C321.274 155.249 321.609 154.447 322.042 153.846C322.488 153.246 323.032 152.814 323.675 152.548C324.317 152.283 325.049 152.151 325.873 152.151C326.92 152.151 327.771 152.353 328.427 152.758C329.062 153.126 329.566 153.682 329.871 154.349C330.178 155.019 330.332 155.78 330.332 156.631H327.736C327.736 156.128 327.666 155.703 327.526 155.354C327.401 154.991 327.192 154.719 326.899 154.537C326.605 154.342 326.229 154.244 325.769 154.244C325.084 154.244 324.568 154.433 324.219 154.81C323.869 155.172 323.633 155.696 323.507 156.38C323.395 157.064 323.333 157.88 323.319 158.829C323.402 158.717 323.577 158.564 323.842 158.369C324.122 158.159 324.484 157.971 324.931 157.803C325.377 157.636 325.887 157.552 326.459 157.552C327.464 157.552 328.287 157.761 328.929 158.18C329.565 158.578 330.063 159.163 330.353 159.855C330.66 160.567 330.813 161.376 330.813 162.284C330.813 163.247 330.604 164.084 330.185 164.796C329.778 165.496 329.184 166.069 328.469 166.45C327.743 166.827 326.914 167.015 325.978 167.015ZM325.852 164.921C326.382 164.921 326.815 164.803 327.15 164.565C327.498 164.328 327.768 163.993 327.924 163.602C328.092 163.198 328.176 162.751 328.176 162.263C328.176 161.746 328.092 161.293 327.924 160.902C327.771 160.515 327.5 160.185 327.15 159.96C326.815 159.722 326.382 159.604 325.852 159.604C325.322 159.604 324.882 159.722 324.532 159.96C324.182 160.185 323.911 160.515 323.758 160.902C323.591 161.293 323.507 161.753 323.507 162.284C323.507 162.772 323.591 163.219 323.758 163.623C323.926 164.028 324.184 164.349 324.533 164.586C324.882 164.81 325.321 164.921 325.852 164.921ZM337.098 167.015C336.316 167.015 335.618 166.903 335.004 166.68C334.38 166.435 333.837 166.022 333.434 165.487C333.001 164.928 332.674 164.175 332.45 163.226C332.227 162.263 332.115 161.048 332.115 159.583C332.115 158.117 332.227 156.91 332.45 155.961C332.673 154.998 333.001 154.237 333.434 153.679C333.867 153.121 334.39 152.73 335.004 152.507C335.618 152.269 336.316 152.151 337.098 152.151C337.879 152.151 338.57 152.269 339.17 152.507C339.784 152.73 340.308 153.121 340.74 153.679C341.173 154.237 341.501 154.998 341.725 155.961C341.948 156.91 342.059 158.117 342.059 159.583C342.059 161.048 341.948 162.263 341.725 163.226C341.501 164.175 341.173 164.928 340.741 165.487C340.338 166.022 339.795 166.435 339.171 166.68C338.571 166.903 337.879 167.015 337.098 167.015ZM337.098 164.921C337.754 164.921 338.242 164.747 338.563 164.398C338.898 164.035 339.122 163.505 339.233 162.807C339.359 162.095 339.422 161.216 339.422 160.169V159.08C339.422 158.006 339.359 157.112 339.233 156.401C339.122 155.675 338.898 155.138 338.563 154.789C338.243 154.426 337.753 154.244 337.098 154.244C336.456 154.244 335.96 154.426 335.611 154.789C335.276 155.138 335.046 155.668 334.921 156.38C334.809 157.078 334.753 157.957 334.753 159.018V160.106C334.753 161.167 334.809 162.06 334.92 162.786C335.046 163.498 335.276 164.035 335.611 164.398C335.961 164.747 336.456 164.921 337.098 164.921ZM344.136 170.176V169.109C344.486 169.053 344.764 168.913 344.974 168.69C345.183 168.466 345.337 168.187 345.434 167.852C345.548 167.501 345.605 167.133 345.602 166.764H344.304V164.084H346.942V166.533C346.942 167.343 346.809 167.999 346.544 168.501C346.293 169.004 345.951 169.381 345.518 169.632C345.099 169.897 344.638 170.079 344.136 170.176ZM350.182 166.764V164.67H353.637V155.626H350.162V154.056C350.58 154.014 351.069 153.916 351.627 153.763C352.199 153.595 352.778 153.393 353.365 153.156C353.91 152.938 354.441 152.686 354.955 152.402H356.212V164.67H359.394V166.764H350.182ZM360.633 166.764V166.073C360.633 165.445 360.745 164.873 360.968 164.356C361.191 163.84 361.491 163.372 361.868 162.953C362.252 162.514 362.672 162.108 363.124 161.739C363.599 161.348 364.074 160.979 364.548 160.63C365.112 160.214 365.664 159.781 366.202 159.332C366.687 158.92 367.11 158.441 367.458 157.908C367.778 157.393 367.945 156.797 367.939 156.191C367.939 155.898 367.869 155.605 367.73 155.312C367.577 155.005 367.337 154.75 367.04 154.579C366.732 154.384 366.313 154.286 365.783 154.286C365.253 154.286 364.813 154.377 364.464 154.558C364.129 154.713 363.851 154.97 363.669 155.291C363.501 155.612 363.417 156.01 363.417 156.484V157.343H360.863C360.844 157.239 360.83 157.134 360.821 157.029C360.806 156.855 360.799 156.68 360.801 156.505C360.801 155.472 361.031 154.642 361.491 154.014C361.962 153.374 362.61 152.887 363.355 152.611C364.163 152.299 365.022 152.143 365.888 152.151C366.837 152.151 367.612 152.29 368.212 152.569C368.826 152.849 369.3 153.204 369.635 153.637C369.985 154.07 370.222 154.53 370.347 155.019C370.487 155.507 370.557 155.954 370.557 156.359C370.564 156.991 370.443 157.617 370.201 158.201C369.967 158.762 369.649 159.285 369.258 159.75C368.822 160.255 368.338 160.718 367.814 161.132C367.27 161.565 366.684 162.004 366.055 162.451C365.735 162.674 365.42 162.898 365.113 163.121C364.827 163.327 364.555 163.551 364.297 163.791C364.093 163.989 363.916 164.215 363.773 164.461H370.64V166.764H360.633ZM377.971 166.764V163.561H371.65V161.467C372.21 160.542 372.727 159.592 373.199 158.62C373.674 157.643 374.106 156.617 374.497 155.542C374.887 154.468 375.223 153.337 375.502 152.151H378.182C377.99 152.923 377.76 153.684 377.491 154.433C377.215 155.206 376.908 155.967 376.57 156.715C376.235 157.454 375.9 158.145 375.565 158.787C375.23 159.415 374.915 159.967 374.623 160.441C374.343 160.902 374.12 161.244 373.953 161.467H377.973V157.845C378.098 157.58 378.223 157.301 378.349 157.008C378.475 156.701 378.593 156.394 378.705 156.087C378.831 155.766 378.942 155.459 379.04 155.165C379.138 154.858 379.228 154.565 379.312 154.286H380.526V161.467H382.306V163.561H380.526V166.764H377.971ZM384.255 166.764V164.084H386.914V166.764H384.255ZM394.133 167.015C393.351 167.015 392.653 166.903 392.039 166.68C391.415 166.436 390.872 166.023 390.469 165.487C390.036 164.928 389.708 164.175 389.485 163.226C389.262 162.263 389.15 161.048 389.15 159.583C389.15 158.117 389.262 156.91 389.485 155.961C389.708 154.998 390.036 154.237 390.469 153.679C390.901 153.121 391.425 152.73 392.039 152.507C392.653 152.269 393.351 152.151 394.133 152.151C394.914 152.151 395.605 152.269 396.205 152.507C396.819 152.73 397.343 153.121 397.775 153.679C398.208 154.237 398.536 154.998 398.759 155.961C398.983 156.91 399.094 158.117 399.094 159.583C399.094 161.048 398.983 162.263 398.759 163.226C398.536 164.175 398.208 164.928 397.775 165.487C397.373 166.023 396.829 166.436 396.205 166.68C395.605 166.903 394.914 167.015 394.133 167.015ZM394.133 164.921C394.788 164.921 395.277 164.747 395.598 164.398C395.933 164.035 396.156 163.505 396.268 162.807C396.394 162.095 396.456 161.216 396.456 160.169V159.08C396.456 158.006 396.394 157.112 396.268 156.401C396.156 155.675 395.933 155.138 395.598 154.789C395.277 154.426 394.788 154.244 394.133 154.244C393.49 154.244 392.995 154.426 392.646 154.789C392.311 155.138 392.081 155.668 391.955 156.38C391.844 157.078 391.788 157.957 391.788 159.018V160.106C391.788 161.167 391.844 162.06 391.955 162.786C392.081 163.498 392.311 164.035 392.646 164.398C392.995 164.747 393.49 164.921 394.133 164.921ZM405.546 167.015C404.765 167.015 404.067 166.903 403.453 166.68C402.829 166.436 402.286 166.023 401.883 165.487C401.45 164.928 401.122 164.175 400.899 163.226C400.675 162.263 400.564 161.048 400.564 159.583C400.564 158.117 400.675 156.91 400.899 155.961C401.122 154.998 401.45 154.237 401.883 153.679C402.315 153.121 402.839 152.73 403.453 152.507C404.067 152.269 404.765 152.151 405.546 152.151C406.328 152.151 407.019 152.269 407.619 152.507C408.233 152.73 408.757 153.121 409.189 153.679C409.622 154.237 409.95 154.998 410.173 155.961C410.397 156.91 410.508 158.117 410.508 159.583C410.508 161.048 410.397 162.263 410.173 163.226C409.95 164.175 409.622 164.928 409.189 165.487C408.787 166.023 408.243 166.436 407.619 166.68C407.019 166.903 406.328 167.015 405.546 167.015ZM405.546 164.921C406.202 164.921 406.691 164.747 407.012 164.398C407.347 164.035 407.57 163.505 407.682 162.807C407.808 162.095 407.87 161.216 407.87 160.169V159.08C407.87 158.006 407.808 157.112 407.682 156.401C407.57 155.675 407.347 155.138 407.012 154.789C406.691 154.426 406.202 154.244 405.546 154.244C404.904 154.244 404.409 154.426 404.06 154.789C403.725 155.138 403.495 155.668 403.369 156.38C403.258 157.078 403.202 157.957 403.202 159.018V160.106C403.202 161.167 403.258 162.06 403.369 162.786C403.495 163.498 403.725 164.035 404.06 164.398C404.409 164.747 404.904 164.921 405.546 164.921Z" fill="#002E25"/>
<path d="M383.955 187.721H312.425C310.498 187.721 308.936 189.283 308.936 191.21V191.211C308.936 193.138 310.498 194.7 312.425 194.7H383.955C385.882 194.7 387.444 193.138 387.444 191.211V191.21C387.444 189.283 385.882 187.721 383.955 187.721Z" fill="#DAE7E3"/>
<path d="M527.576 215.635H312.425C310.498 215.635 308.936 217.197 308.936 219.124V247.103C308.936 249.03 310.498 250.592 312.425 250.592H527.576C529.503 250.592 531.065 249.03 531.065 247.103V219.124C531.065 217.197 529.503 215.635 527.576 215.635Z" fill="#CFEEDD"/>
<path d="M322.893 236.602C324.82 236.602 326.382 235.04 326.382 233.113C326.382 231.186 324.82 229.624 322.893 229.624C320.966 229.624 319.404 231.186 319.404 233.113C319.404 235.04 320.966 236.602 322.893 236.602Z" fill="#005242"/>
<path d="M517.108 229.624H482.215C480.288 229.624 478.726 231.186 478.726 233.113V233.114C478.726 235.041 480.288 236.603 482.215 236.603H517.108C519.035 236.603 520.597 235.041 520.597 233.114V233.113C520.597 231.186 519.035 229.624 517.108 229.624Z" fill="#005242"/>
</g>
</g>
</g>
<rect x="288.5" y="48.5" width="263" height="223" rx="11.5" stroke="#EBECEF"/>
</g>
<defs>
<filter id="filter0_d_2032_4106" x="131.131" y="156.552" width="17.3699" height="17.37" filterUnits="userSpaceOnUse" color-interpolation-filters="sRGB">
<feFlood flood-opacity="0" result="BackgroundImageFix"/>
<feColorMatrix in="SourceAlpha" type="matrix" values="0 0 0 0 0 0 0 0 0 0 0 0 0 0 0 0 0 0 127 0" result="hardAlpha"/>
<feOffset dy="3.474"/>
<feGaussianBlur stdDeviation="1.737"/>
<feComposite in2="hardAlpha" operator="out"/>
<feColorMatrix type="matrix" values="0 0 0 0 0 0 0 0 0 0 0 0 0 0 0 0 0 0 0.08 0"/>
<feBlend mode="normal" in2="BackgroundImageFix" result="effect1_dropShadow_2032_4106"/>
<feBlend mode="normal" in="SourceGraphic" in2="effect1_dropShadow_2032_4106" result="shape"/>
</filter>
<linearGradient id="paint0_linear_2032_4106" x1="139.139" y1="119.211" x2="139.139" y2="216.474" gradientUnits="userSpaceOnUse">
<stop stop-color="#002E25"/>
<stop offset="1" stop-color="#002E25" stop-opacity="0.04"/>
</linearGradient>
<clipPath id="clip0_2032_4106">
<rect width="552" height="320" fill="white"/>
</clipPath>
<clipPath id="clip1_2032_4106">
<rect width="552" height="320" fill="white"/>
</clipPath>
<clipPath id="clip2_2032_4106">
<rect y="48" width="264" height="224" rx="12" fill="white"/>
</clipPath>
<clipPath id="clip3_2032_4106">
<rect y="48" width="264" height="224" rx="12" fill="white"/>
</clipPath>
<clipPath id="clip4_2032_4106">
<rect width="264" height="224" fill="white" transform="translate(0 48)"/>
</clipPath>
<clipPath id="clip5_2032_4106">
<rect width="264" height="224" fill="white" transform="translate(0 48)"/>
</clipPath>
<clipPath id="clip6_2032_4106">
<rect x="288" y="48" width="264" height="224" rx="12" fill="white"/>
</clipPath>
<clipPath id="clip7_2032_4106">
<rect x="288" y="48" width="264" height="224" rx="12" fill="white"/>
</clipPath>
<clipPath id="clip8_2032_4106">
<rect width="264" height="224" fill="white" transform="translate(288 48)"/>
</clipPath>
<clipPath id="clip9_2032_4106">
<rect width="264" height="224" fill="white" transform="translate(288 48)"/>
</clipPath>
</defs>
</svg>
