<svg width="24" height="24" viewBox="0 0 24 24" fill="none" xmlns="http://www.w3.org/2000/svg">
<rect width="24" height="24" rx="5" fill="white"/>
<path fill-rule="evenodd" clip-rule="evenodd" d="M8.25083 5C6.45545 5 5 6.45545 5 8.25083V15.7525C5 17.5479 6.45545 19.0033 8.25083 19.0033H15.7525C17.5479 19.0033 19.0033 17.5479 19.0033 15.7525V8.25083C19.0033 6.45545 17.5479 5 15.7525 5H8.25083ZM4 8.25083C4 5.90316 5.90316 4 8.25083 4H15.7525C18.1002 4 20.0033 5.90316 20.0033 8.25083V15.7525C20.0033 18.1002 18.1002 20.0033 15.7525 20.0033H8.25083C5.90316 20.0033 4 18.1002 4 15.7525V8.25083ZM12.4012 9.49544C11.8809 9.41829 11.3495 9.50716 10.8826 9.74941C10.4158 9.99166 10.0372 10.375 9.80068 10.8448C9.5642 11.3146 9.48189 11.847 9.56545 12.3663C9.64902 12.8856 9.8942 13.3654 10.2661 13.7373C10.638 14.1092 11.1178 14.3544 11.6371 14.438C12.1564 14.5215 12.6888 14.4392 13.1586 14.2027C13.6285 13.9663 14.0118 13.5877 14.254 13.1208C14.4963 12.6539 14.5851 12.1225 14.508 11.6022C14.4293 11.0715 14.182 10.5802 13.8026 10.2008C13.4232 9.82144 12.9319 9.57414 12.4012 9.49544ZM10.4221 8.86178C11.0756 8.52266 11.8195 8.39825 12.5478 8.50626C13.2908 8.61643 13.9786 8.96262 14.5097 9.49371C15.0408 10.0248 15.387 10.7126 15.4972 11.4556C15.6052 12.1839 15.4808 12.9278 15.1416 13.5814C14.8025 14.2349 14.2659 14.7649 13.6082 15.096C12.9505 15.427 12.2052 15.5422 11.4782 15.4253C10.7512 15.3083 10.0797 14.965 9.55901 14.4444C9.03836 13.9237 8.69513 13.2522 8.57815 12.5252C8.46118 11.7982 8.5764 11.0529 8.90744 10.3952C9.23848 9.73749 9.76848 9.20091 10.4221 8.86178ZM16.1274 7.37574C15.8513 7.37574 15.6274 7.5996 15.6274 7.87574C15.6274 8.15188 15.8513 8.37574 16.1274 8.37574H16.135C16.4112 8.37574 16.635 8.15188 16.635 7.87574C16.635 7.5996 16.4112 7.37574 16.135 7.37574H16.1274Z" fill="black"/>
</svg>
