<svg width="153" height="39" viewBox="0 0 153 39" fill="none" xmlns="http://www.w3.org/2000/svg">
<path d="M0.737811 21.959C-0.245937 20.9673 -0.245937 19.3595 0.737811 18.3678C1.72156 17.3762 3.31653 17.3762 4.30028 18.3678L8.08562 22.1836C9.06937 23.1753 9.06937 24.7831 8.08562 25.7748C7.10187 26.7664 5.5069 26.7664 4.52316 25.7748L0.737811 21.959Z" fill="#298250"/>
<path d="M8.67007 29.955C7.68632 28.9634 7.68632 27.3556 8.67007 26.3639C9.65382 25.3722 11.2488 25.3722 12.2325 26.3639C13.2163 27.3556 20.4606 35.5496 19.4768 36.5413C18.4931 37.5329 9.65382 30.9467 8.67007 29.955Z" fill="#298250"/>
<path d="M1.43141 13.3478C-0.0212036 11.8835 -0.0212023 9.50939 1.43141 8.0451C2.88402 6.5808 5.23916 6.5808 6.69177 8.0451L22.4729 23.9532C23.9255 25.4175 23.9255 27.7916 22.4729 29.2559C21.0203 30.7202 18.6651 30.7202 17.2125 29.2559L1.43141 13.3478Z" fill="#298250"/>
<path d="M15.9144 15.1775C14.9306 14.1858 14.9306 12.578 15.9144 11.5864C16.8981 10.5947 18.4931 10.5947 19.4768 11.5864L23.2622 15.4022C24.2459 16.3938 24.2459 18.0016 23.2622 18.9933C22.2784 19.985 20.6835 19.985 19.6997 18.9933L15.9144 15.1775Z" fill="#298250"/>
<path d="M11.594 10.8587C10.6103 9.86706 4.68292 3.4833 5.66667 2.49164C6.65041 1.49998 14.1728 6.27593 15.1565 7.26759C16.1402 8.25926 16.1402 9.86706 15.1565 10.8587C14.1728 11.8504 12.5778 11.8504 11.594 10.8587Z" fill="#298250"/>
<path d="M38.2955 31V7.72727H42.5114V18.4205H42.7955L51.875 7.72727H57.0227L48.0227 18.1705L57.1023 31H52.0341L45.0909 21.0227L42.5114 24.0682V31H38.2955ZM69.8011 23.6591V13.5455H73.9148V31H69.9261V27.8977H69.7443C69.3504 28.875 68.7027 29.6742 67.8011 30.2955C66.9072 30.9167 65.8049 31.2273 64.4943 31.2273C63.3504 31.2273 62.339 30.9735 61.4602 30.4659C60.589 29.9508 59.9072 29.2045 59.4148 28.2273C58.9223 27.2424 58.6761 26.053 58.6761 24.6591V13.5455H62.7898V24.0227C62.7898 25.1288 63.0928 26.0076 63.6989 26.6591C64.3049 27.3106 65.1004 27.6364 66.0852 27.6364C66.6913 27.6364 67.2784 27.4886 67.8466 27.1932C68.4148 26.8977 68.8807 26.4583 69.2443 25.875C69.6155 25.2841 69.8011 24.5455 69.8011 23.6591ZM78.1449 31V13.5455H82.1335V16.4545H82.3153C82.6335 15.447 83.179 14.6705 83.9517 14.125C84.732 13.572 85.6222 13.2955 86.6222 13.2955C86.8494 13.2955 87.1032 13.3068 87.3835 13.3295C87.6714 13.3447 87.91 13.3712 88.0994 13.4091V17.1932C87.9252 17.1326 87.6487 17.0795 87.2699 17.0341C86.8987 16.9811 86.5388 16.9545 86.1903 16.9545C85.4403 16.9545 84.7661 17.1174 84.1676 17.4432C83.5767 17.7614 83.1108 18.2045 82.7699 18.7727C82.429 19.3409 82.2585 19.9962 82.2585 20.7386V31H78.1449ZM95.5426 31.3523C94.4366 31.3523 93.4403 31.1553 92.554 30.7614C91.6752 30.3598 90.9782 29.7689 90.4631 28.9886C89.9555 28.2083 89.7017 27.2462 89.7017 26.1023C89.7017 25.1174 89.8835 24.303 90.2472 23.6591C90.6108 23.0152 91.107 22.5 91.7358 22.1136C92.3646 21.7273 93.0729 21.4356 93.8608 21.2386C94.6563 21.0341 95.4782 20.8864 96.3267 20.7955C97.3494 20.6894 98.179 20.5947 98.8153 20.5114C99.4517 20.4205 99.9138 20.2841 100.202 20.1023C100.497 19.9129 100.645 19.6212 100.645 19.2273V19.1591C100.645 18.303 100.391 17.6402 99.8835 17.1705C99.3759 16.7008 98.6449 16.4659 97.6903 16.4659C96.6828 16.4659 95.8835 16.6856 95.2926 17.125C94.7093 17.5644 94.3153 18.0833 94.1108 18.6818L90.2699 18.1364C90.5729 17.0758 91.0729 16.1894 91.7699 15.4773C92.4669 14.7576 93.3191 14.2197 94.3267 13.8636C95.3343 13.5 96.4479 13.3182 97.6676 13.3182C98.5085 13.3182 99.3456 13.4167 100.179 13.6136C101.012 13.8106 101.774 14.1364 102.463 14.5909C103.152 15.0379 103.705 15.6477 104.122 16.4205C104.546 17.1932 104.759 18.1591 104.759 19.3182V31H100.804V28.6023H100.668C100.418 29.0871 100.065 29.5417 99.6108 29.9659C99.1638 30.3826 98.5994 30.7197 97.9176 30.9773C97.2434 31.2273 96.4517 31.3523 95.5426 31.3523ZM96.6108 28.3295C97.4366 28.3295 98.1525 28.1667 98.7585 27.8409C99.3646 27.5076 99.8305 27.0682 100.156 26.5227C100.49 25.9773 100.656 25.3826 100.656 24.7386V22.6818C100.527 22.7879 100.308 22.8864 99.9972 22.9773C99.6941 23.0682 99.3532 23.1477 98.9744 23.2159C98.5956 23.2841 98.2206 23.3447 97.8494 23.3977C97.4782 23.4508 97.1563 23.4962 96.8835 23.5341C96.2699 23.6174 95.7206 23.7538 95.2358 23.9432C94.7509 24.1326 94.3684 24.3977 94.0881 24.7386C93.8078 25.072 93.6676 25.5038 93.6676 26.0341C93.6676 26.7917 93.9441 27.3636 94.4972 27.75C95.0502 28.1364 95.7547 28.3295 96.6108 28.3295ZM109.077 31V7.72727H117.986C119.668 7.72727 121.065 7.99242 122.179 8.52273C123.3 9.04545 124.137 9.76136 124.69 10.6705C125.251 11.5795 125.531 12.6098 125.531 13.7614C125.531 14.7083 125.349 15.5189 124.986 16.1932C124.622 16.8598 124.134 17.4015 123.52 17.8182C122.906 18.2348 122.221 18.5341 121.463 18.7159V18.9432C122.289 18.9886 123.08 19.2424 123.838 19.7045C124.603 20.1591 125.228 20.803 125.713 21.6364C126.198 22.4697 126.44 23.4773 126.44 24.6591C126.44 25.8636 126.149 26.947 125.565 27.9091C124.982 28.8636 124.103 29.6174 122.929 30.1705C121.755 30.7235 120.277 31 118.497 31H109.077ZM113.293 27.4773H117.827C119.357 27.4773 120.459 27.1856 121.134 26.6023C121.815 26.0114 122.156 25.2538 122.156 24.3295C122.156 23.6402 121.986 23.0189 121.645 22.4659C121.304 21.9053 120.819 21.4659 120.19 21.1477C119.562 20.822 118.812 20.6591 117.94 20.6591H113.293V27.4773ZM113.293 17.625H117.463C118.19 17.625 118.846 17.4924 119.429 17.2273C120.012 16.9545 120.471 16.572 120.804 16.0795C121.145 15.5795 121.315 14.9886 121.315 14.3068C121.315 13.4053 120.997 12.6629 120.361 12.0795C119.732 11.4962 118.796 11.2045 117.554 11.2045H113.293V17.625ZM129.926 31V13.5455H134.04V31H129.926ZM131.994 11.0682C131.343 11.0682 130.782 10.8523 130.312 10.4205C129.843 9.98106 129.608 9.45454 129.608 8.84091C129.608 8.2197 129.843 7.69318 130.312 7.26136C130.782 6.82197 131.343 6.60227 131.994 6.60227C132.653 6.60227 133.214 6.82197 133.676 7.26136C134.146 7.69318 134.381 8.2197 134.381 8.84091C134.381 9.45454 134.146 9.98106 133.676 10.4205C133.214 10.8523 132.653 11.0682 131.994 11.0682ZM142.384 7.72727V31H138.27V7.72727H142.384ZM150.727 7.72727V31H146.614V7.72727H150.727Z" fill="white"/>
</svg>
