<svg width="124" height="35" viewBox="0 0 124 35" fill="none" xmlns="http://www.w3.org/2000/svg">
<path d="M0.737811 19.9591C-0.245937 18.9675 -0.245937 17.3597 0.737811 16.368C1.72156 15.3763 3.31653 15.3763 4.30028 16.368L8.08562 20.1838C9.06937 21.1755 9.06937 22.7833 8.08562 23.7749C7.10187 24.7666 5.5069 24.7666 4.52316 23.7749L0.737811 19.9591Z" fill="#336E2E"/>
<path d="M8.67007 27.9552C7.68632 26.9636 7.68632 25.3558 8.67007 24.3641C9.65382 23.3724 11.2488 23.3724 12.2325 24.3641C13.2163 25.3558 20.4606 33.5498 19.4768 34.5415C18.4931 35.5331 9.65382 28.9469 8.67007 27.9552Z" fill="#336E2E"/>
<path d="M1.43141 11.348C-0.0212036 9.88367 -0.0212023 7.50958 1.43141 6.04528C2.88402 4.58098 5.23916 4.58098 6.69177 6.04528L22.4729 21.9534C23.9255 23.4176 23.9255 25.7917 22.4729 27.256C21.0203 28.7203 18.6651 28.7203 17.2125 27.256L1.43141 11.348Z" fill="#336E2E"/>
<path d="M15.9144 13.1777C14.9306 12.186 14.9306 10.5782 15.9144 9.58654C16.8981 8.59487 18.4931 8.59487 19.4768 9.58654L23.2622 13.4023C24.2459 14.394 24.2459 16.0018 23.2622 16.9935C22.2784 17.9851 20.6835 17.9851 19.6997 16.9935L15.9144 13.1777Z" fill="#336E2E"/>
<path d="M11.594 8.85891C10.6103 7.86724 4.68292 1.48349 5.66667 0.491822C6.65041 -0.499841 14.1728 4.27611 15.1565 5.26778C16.1402 6.25944 16.1402 7.86724 15.1565 8.85891C14.1728 9.85057 12.5778 9.85057 11.594 8.85891Z" fill="#336E2E"/>
<path d="M37.7216 26V8.54545H40.8835V16.5653H41.0966L47.9062 8.54545H51.767L45.017 16.3778L51.8267 26H48.0256L42.8182 18.517L40.8835 20.8011V26H37.7216ZM61.3509 20.4943V12.9091H64.4361V26H61.4446V23.6733H61.3082C61.0128 24.4062 60.527 25.0057 59.8509 25.4716C59.1804 25.9375 58.3537 26.1705 57.3707 26.1705C56.5128 26.1705 55.7543 25.9801 55.0952 25.5994C54.4418 25.2131 53.9304 24.6534 53.5611 23.9205C53.1918 23.1818 53.0071 22.2898 53.0071 21.2443V12.9091H56.0923V20.767C56.0923 21.5966 56.3196 22.2557 56.7741 22.7443C57.2287 23.233 57.8253 23.4773 58.5639 23.4773C59.0185 23.4773 59.4588 23.3665 59.8849 23.1449C60.3111 22.9233 60.6605 22.5938 60.9332 22.1562C61.2116 21.7131 61.3509 21.1591 61.3509 20.4943ZM67.6087 26V12.9091H70.6001V15.0909H70.7365C70.9751 14.3352 71.3842 13.7528 71.9638 13.3438C72.549 12.929 73.2166 12.7216 73.9666 12.7216C74.1371 12.7216 74.3274 12.7301 74.5376 12.7472C74.7536 12.7585 74.9325 12.7784 75.0746 12.8068V15.6449C74.9439 15.5994 74.7365 15.5597 74.4524 15.5256C74.174 15.4858 73.9041 15.4659 73.6428 15.4659C73.0803 15.4659 72.5746 15.5881 72.1257 15.8324C71.6825 16.071 71.3331 16.4034 71.0774 16.8295C70.8217 17.2557 70.6939 17.7472 70.6939 18.304V26H67.6087ZM80.657 26.2642C79.8274 26.2642 79.0803 26.1165 78.4155 25.821C77.7564 25.5199 77.2337 25.0767 76.8473 24.4915C76.4666 23.9062 76.2763 23.1847 76.2763 22.3267C76.2763 21.5881 76.4126 20.9773 76.6854 20.4943C76.9581 20.0114 77.3303 19.625 77.8018 19.3352C78.2734 19.0455 78.8047 18.8267 79.3956 18.679C79.9922 18.5256 80.6087 18.4148 81.245 18.3466C82.0121 18.267 82.6342 18.196 83.1115 18.1335C83.5888 18.0653 83.9354 17.9631 84.1513 17.8267C84.3729 17.6847 84.4837 17.4659 84.4837 17.1705V17.1193C84.4837 16.4773 84.2933 15.9801 83.9126 15.6278C83.532 15.2756 82.9837 15.0994 82.2678 15.0994C81.5121 15.0994 80.9126 15.2642 80.4695 15.5938C80.032 15.9233 79.7365 16.3125 79.5831 16.7614L76.7024 16.3523C76.9297 15.5568 77.3047 14.892 77.8274 14.358C78.3501 13.8182 78.9893 13.4148 79.745 13.1477C80.5007 12.875 81.3359 12.7386 82.2507 12.7386C82.8814 12.7386 83.5092 12.8125 84.1342 12.9602C84.7592 13.108 85.3303 13.3523 85.8473 13.6932C86.3643 14.0284 86.7791 14.4858 87.0916 15.0653C87.4098 15.6449 87.5689 16.3693 87.5689 17.2386V26H84.603V24.2017H84.5007C84.3132 24.5653 84.049 24.9062 83.7081 25.2244C83.3729 25.5369 82.9496 25.7898 82.4382 25.983C81.9325 26.1705 81.3388 26.2642 80.657 26.2642ZM81.4581 23.9972C82.0774 23.9972 82.6143 23.875 83.0689 23.6307C83.5234 23.3807 83.8729 23.0511 84.1172 22.642C84.3672 22.233 84.4922 21.7869 84.4922 21.304V19.7614C84.3956 19.8409 84.2308 19.9148 83.9979 19.983C83.7706 20.0511 83.5149 20.1108 83.2308 20.1619C82.9467 20.2131 82.6655 20.2585 82.3871 20.2983C82.1087 20.3381 81.8672 20.3722 81.6626 20.4006C81.2024 20.4631 80.7905 20.5653 80.4268 20.7074C80.0632 20.8494 79.7763 21.0483 79.5661 21.304C79.3558 21.554 79.2507 21.8778 79.2507 22.2756C79.2507 22.8438 79.4581 23.2727 79.8729 23.5625C80.2876 23.8523 80.8161 23.9972 81.4581 23.9972ZM90.8075 26V8.54545H97.4893C98.7507 8.54545 99.799 8.74432 100.634 9.14204C101.475 9.53409 102.103 10.071 102.518 10.7528C102.938 11.4347 103.148 12.2074 103.148 13.071C103.148 13.7812 103.012 14.3892 102.739 14.8949C102.467 15.3949 102.1 15.8011 101.64 16.1136C101.18 16.4261 100.665 16.6506 100.097 16.7869V16.9574C100.717 16.9915 101.31 17.1818 101.879 17.5284C102.452 17.8693 102.921 18.3523 103.285 18.9773C103.648 19.6023 103.83 20.358 103.83 21.2443C103.83 22.1477 103.612 22.9602 103.174 23.6818C102.737 24.3977 102.077 24.9631 101.197 25.3778C100.316 25.7926 99.2081 26 97.8729 26H90.8075ZM93.9695 23.358H97.37C98.5178 23.358 99.3445 23.1392 99.8501 22.7017C100.362 22.2585 100.617 21.6903 100.617 20.9972C100.617 20.4801 100.489 20.0142 100.234 19.5994C99.978 19.179 99.6143 18.8494 99.1428 18.6108C98.6712 18.3665 98.1087 18.2443 97.4553 18.2443H93.9695V23.358ZM93.9695 15.9688H97.0973C97.6428 15.9688 98.1342 15.8693 98.5717 15.6705C99.0092 15.4659 99.353 15.179 99.603 14.8097C99.8587 14.4347 99.9865 13.9915 99.9865 13.4801C99.9865 12.804 99.7479 12.2472 99.2706 11.8097C98.799 11.3722 98.0973 11.1534 97.1655 11.1534H93.9695V15.9688ZM106.445 26V12.9091H109.53V26H106.445ZM107.996 11.0511C107.507 11.0511 107.087 10.8892 106.734 10.5653C106.382 10.2358 106.206 9.84091 106.206 9.38068C106.206 8.91477 106.382 8.51989 106.734 8.19602C107.087 7.86648 107.507 7.7017 107.996 7.7017C108.49 7.7017 108.911 7.86648 109.257 8.19602C109.609 8.51989 109.786 8.91477 109.786 9.38068C109.786 9.84091 109.609 10.2358 109.257 10.5653C108.911 10.8892 108.49 11.0511 107.996 11.0511ZM115.788 8.54545V26H112.702V8.54545H115.788ZM122.045 8.54545V26H118.96V8.54545H122.045Z" fill="white"/>
</svg>
