<svg width="24" height="24" viewBox="0 0 24 24" fill="none" xmlns="http://www.w3.org/2000/svg">
<g clip-path="url(#clip0_2758_559)">
<rect width="24" height="24" rx="5" fill="white"/>
<path d="M20 6.00729C19.3036 6.49666 18.5324 6.87096 17.7164 7.11575C17.2784 6.61405 16.6962 6.25846 16.0488 6.09707C15.4013 5.93568 14.7196 5.97627 14.0961 6.21337C13.4725 6.45046 12.937 6.87262 12.5622 7.42273C12.1873 7.97285 11.9911 8.62438 12 9.28922V10.0137C10.7219 10.0467 9.45547 9.76435 8.31346 9.19174C7.17145 8.61913 6.18932 7.77405 5.45455 6.73177C5.45455 6.73177 2.54545 13.2522 9.09091 16.1501C7.59311 17.1629 5.80884 17.6708 4 17.5991C10.5455 21.2216 18.5455 17.5991 18.5455 9.26749C18.5448 9.06568 18.5253 8.86438 18.4873 8.66616C19.2295 7.93696 19.7533 7.01629 20 6.00729V6.00729Z" stroke="black" stroke-linecap="round" stroke-linejoin="round"/>
</g>
<defs>
<clipPath id="clip0_2758_559">
<rect width="24" height="24" fill="white"/>
</clipPath>
</defs>
</svg>
