<svg width="31" height="24" viewBox="0 0 31 24" fill="none" xmlns="http://www.w3.org/2000/svg">
<rect width="24" height="24" rx="5" fill="white"/>
<path d="M19.6651 8.72186C19.5787 8.38419 19.4027 8.07479 19.155 7.82493C18.9073 7.57507 18.5966 7.3936 18.2542 7.29884C17.0034 7 12 7 12 7C12 7 6.99662 7 5.74578 7.3273C5.40343 7.42206 5.09271 7.60353 4.84499 7.85339C4.59727 8.10325 4.42133 8.41265 4.33494 8.75032C4.10602 9.99231 3.99404 11.2522 4.00042 12.5142C3.99226 13.7857 4.10424 15.0553 4.33494 16.3066C4.43018 16.6338 4.61006 16.9314 4.8572 17.1707C5.10434 17.41 5.41039 17.5829 5.74578 17.6727C6.99662 18 12 18 12 18C12 18 17.0034 18 18.2542 17.6727C18.5966 17.5779 18.9073 17.3965 19.155 17.1466C19.4027 16.8967 19.5787 16.5874 19.6651 16.2497C19.8922 15.017 20.0042 13.7667 19.9996 12.5142C20.0077 11.2427 19.8958 9.9732 19.6651 8.72186V8.72186Z" stroke="black" stroke-linecap="round" stroke-linejoin="round"/>
<path d="M10.0005 15L15.0005 12.5L10.0005 10V15Z" stroke="black" stroke-linecap="round" stroke-linejoin="round"/>
</svg>
