<svg width="72" height="18" viewBox="0 0 72 18" fill="none" xmlns="http://www.w3.org/2000/svg">
<g clip-path="url(#clip0_2032_4072)">
<path d="M64.6288 14.4372C62.9808 14.4372 61.6964 13.087 61.6964 11.4473C61.6964 9.8078 62.9808 8.45747 64.6288 8.45747C66.2768 8.45747 67.5612 9.8078 67.5612 11.4473C67.5612 13.087 66.2768 14.4372 64.6288 14.4372ZM63.8048 17.5959C65.2104 17.5959 67.0039 17.0654 67.9975 14.9918L68.0944 15.04C67.6582 16.1733 67.6582 16.8484 67.6582 17.0172V17.2824H71.1965V5.61232H67.6582V5.87755C67.6582 6.04633 67.6582 6.72146 68.0944 7.85471L67.9975 7.90294C67.0039 5.82933 65.2104 5.29886 63.8048 5.29886C60.4361 5.29886 58.0611 7.95116 58.0611 11.4473C58.0611 14.9436 60.4361 17.5959 63.8048 17.5959ZM51.9055 5.29886C50.3059 5.29886 49.0457 5.85344 48.0278 7.90294L47.9309 7.85471C48.3671 6.72146 48.3671 6.04633 48.3671 5.87755V5.61232H44.8288V17.2824H48.4641V11.1339C48.4641 9.51843 49.4092 8.50576 50.936 8.50576C52.4629 8.50576 53.2141 9.37379 53.2141 11.1098V17.2824H56.8494V9.85601C56.8494 7.20369 54.7651 5.29886 51.9055 5.29886ZM39.5698 7.90294L39.4728 7.85471C39.9091 6.72146 39.9091 6.04633 39.9091 5.87755V5.61232H36.3708V17.2824H40.006L40.0303 11.6643C40.0303 10.0248 40.9027 9.0362 42.3326 9.0362C42.7203 9.0362 43.0354 9.08442 43.3989 9.18085V5.61232C41.7994 5.27475 40.3695 5.87755 39.5698 7.90294ZM28.0097 14.4372C26.3617 14.4372 25.0773 13.087 25.0773 11.4473C25.0773 9.8078 26.3617 8.45747 28.0097 8.45747C29.6577 8.45747 30.9421 9.8078 30.9421 11.4473C30.9421 13.087 29.6577 14.4372 28.0097 14.4372ZM27.1857 17.5959C28.5913 17.5959 30.3847 17.0654 31.3783 14.9918L31.4753 15.04C31.039 16.1733 31.039 16.8484 31.039 17.0172V17.2824H34.5774V5.61232H31.039V5.87755C31.039 6.04633 31.039 6.72146 31.4753 7.85471L31.3783 7.90294C30.3847 5.82933 28.5913 5.29886 27.1857 5.29886C23.817 5.29886 21.442 7.95116 21.442 11.4473C21.442 14.9436 23.817 17.5959 27.1857 17.5959ZM16.3769 17.2824H20.0121V0.404175H16.3769V17.2824ZM13.711 0.404175H10.003C10.003 3.41815 8.13694 6.11866 5.30143 8.04761L4.18662 8.8192V0.404175H0.333252V17.2824H4.18662V8.91563L10.5604 17.2824H15.2621L9.13056 9.27728C11.9176 7.27603 13.7352 4.16561 13.711 0.404175Z" fill="#666666"/>
</g>
<defs>
<clipPath id="clip0_2032_4072">
<rect width="71.1111" height="17.1917" fill="white" transform="translate(0.333252 0.404175)"/>
</clipPath>
</defs>
</svg>
