<svg width="78" height="24" viewBox="0 0 78 24" fill="none" xmlns="http://www.w3.org/2000/svg">
<g clip-path="url(#clip0_2032_4090)">
<path d="M37.0304 6.39014H40.4974V17.6089H37.9282V10.0646L34.6416 17.6089L31.1826 10.0551V17.6089H28.7854V6.39014H32.212L34.6825 12.1969L37.0304 6.39014Z" fill="#666666"/>
<path d="M41.7749 6.39014V17.6089H48.2311V15.707H44.2777V12.8528H48.0676V10.9329H44.2777V8.359H48.2311V6.39014H41.7749Z" fill="#666666"/>
<path d="M57.8604 12.0015C57.8604 16.1776 62.2073 19.5193 66.7875 17.2842V14.8806C63.2632 17.3561 60.1953 14.875 60.2456 12.0974C60.2799 10.2514 61.5172 8.49589 63.9104 8.359C65.0873 8.29202 65.8846 8.58533 66.7875 9.4521V6.95267C63.4779 4.98628 57.8604 7.15051 57.8604 12.0015Z" fill="#666666"/>
<path d="M67.8438 17.6089H70.2235V6.49805H67.8438V17.6089Z" fill="#666666"/>
<path d="M73.2096 11.5928L76.8057 6.52252H74.0263L70.4636 11.5833L74.5998 17.6089H77.3288L73.2096 11.5928Z" fill="#666666"/>
<path d="M49.3438 6.39008V17.6089H51.8553V11.5816L56.007 17.6089H58.6842L55.3975 12.8981C56.9207 12.3206 57.4149 11.04 57.4149 9.7601C57.4149 8.48114 56.3441 6.39008 53.7501 6.39008H49.3438ZM51.8553 8.25695H52.9516C54.8051 8.25695 54.9041 9.47186 54.9041 9.9255C54.9041 10.7923 54.1706 11.5304 53.2239 11.5304H51.8553V8.25695Z" fill="#666666"/>
<path d="M6.25162 6.39039C6.25162 3.29194 8.75694 0.780518 11.8467 0.780518C14.9375 0.780518 17.4419 3.29194 17.4419 6.39039H6.25162ZM6.25162 17.6097C6.25162 14.5117 8.75694 11.9998 11.8467 11.9998C8.75694 11.9998 6.25162 9.48884 6.25162 6.39039C3.16181 6.39039 0.656982 8.90183 0.656982 11.9998C0.656982 15.0987 3.16181 17.6097 6.25162 17.6097ZM6.25162 17.6097C6.25162 20.7086 8.75694 23.2195 11.8467 23.2195C14.9375 23.2195 17.4419 20.7086 17.4419 17.6097H6.25162ZM11.8467 11.9998C14.9375 11.9998 17.4419 14.5117 17.4419 17.6097C20.5322 17.6097 23.0375 15.0987 23.0375 11.9998C23.0375 8.90183 20.5322 6.39039 17.4419 6.39039C17.4419 9.48884 14.9375 11.9998 11.8467 11.9998Z" fill="#666666"/>
</g>
<defs>
<clipPath id="clip0_2032_4090">
<rect width="77.4193" height="23.1884" fill="white" transform="translate(0.283203 0.405823)"/>
</clipPath>
</defs>
</svg>
