<svg width="79" height="14" viewBox="0 0 79 14" fill="none" xmlns="http://www.w3.org/2000/svg">
<g clip-path="url(#clip0_2032_4086)">
<path d="M8.60734 6.33385L8.5759 6.415C9.09999 6.64534 10.2766 7.55885 10.2766 9.39895C10.2766 11.1317 8.81436 12.8776 6.5162 12.8776C3.65726 12.8776 2.67196 11.2076 2.67196 9.67379C2.67196 7.70804 4.04771 6.39929 4.04771 4.60892C4.04022 3.97571 3.81791 3.36376 3.41713 2.8731C3.01635 2.38244 2.4608 2.04208 1.84127 1.90765L1.7941 1.9888C2.01877 2.20655 2.19704 2.46743 2.31818 2.75577C2.43931 3.0441 2.50083 3.35393 2.49901 3.66662C2.49901 5.60095 0.866455 6.97514 0.866455 9.19478C0.866455 11.2391 2.29724 13.3226 6.44021 13.3226C10.1325 13.3226 12.0795 11.5165 12.0795 9.59526C12.0769 7.94624 10.895 6.55111 8.60734 6.33385Z" fill="#666666"/>
<path d="M24.8282 12.9928L19.92 6.67153V12.3698L20.921 12.608V12.8698H18.6386V12.608L19.4562 12.3698V6.16112C19.2572 5.97584 19.0176 5.8396 18.7565 5.76326C18.657 5.74232 18.5233 5.71876 18.5233 5.71876V5.45701H20.4598L24.6526 10.9014V5.96219L23.6516 5.72138V5.45963H25.934V5.72138L25.1164 5.96219V11.6134C25.1164 12.1369 25.1531 12.8986 25.161 12.9954L24.8282 12.9928ZM35.09 8.96708C35.09 11.5846 33.2556 13.1027 31.251 13.1027C29.2463 13.1027 27.4041 11.5636 27.4041 9.17125C27.4041 6.77885 29.2384 5.22405 31.2326 5.22405C31.7346 5.2075 32.2348 5.29227 32.7032 5.47328C33.1716 5.65429 33.5986 5.92782 33.9587 6.27751C34.3189 6.62721 34.6047 7.04587 34.799 7.50845C34.9934 7.97104 35.0924 8.46803 35.09 8.9697V8.96708ZM33.8138 9.35971C33.8138 7.43584 32.6608 5.56956 31.0937 5.56956C29.4271 5.56956 28.675 7.17933 28.675 8.90165C28.675 10.624 29.6263 12.7598 31.4161 12.7598C33.0984 12.7598 33.8138 11.0585 33.8138 9.35971ZM36.6754 5.95695L35.8892 5.71614V5.45439H38.9001V5.71614L37.9568 5.95695L40.0348 11.616L42.1128 5.95695L41.1695 5.71614V5.45439H43.3969V5.71614L42.6107 5.95695L40.0086 13.0111H39.343L36.6754 5.95695ZM54.4684 9.08487H53.9915V5.8444C55.5637 5.8444 56.4993 6.20562 56.4993 7.48819C56.4914 8.44096 55.6738 9.08487 54.4684 9.08487ZM67.9403 12.608L68.9885 12.3698V5.95957L67.9403 5.71876V5.45701H71.208V5.71876L70.1598 5.95957V12.3698L71.208 12.608V12.8698H67.9403V12.608ZM73.21 10.8334H73.4171L74.1115 12.43C74.5243 12.6372 74.9782 12.7498 75.4401 12.7598C76.3415 12.7598 77.1643 12.2363 77.1643 11.2993C77.1643 10.5873 76.7031 10.1633 75.9563 9.77328L75.2173 9.39112C74.3342 8.93305 73.4511 8.28391 73.4511 7.23953C73.4511 6.10353 74.2373 5.22667 75.9196 5.22667C76.5108 5.23267 77.0975 5.32888 77.6596 5.51198L77.8352 7.22906H77.6124L76.9704 5.85225C76.638 5.66684 76.2636 5.56952 75.8829 5.56956C75.0313 5.56956 74.4521 6.09306 74.4521 6.81811C74.4521 7.47511 74.8898 7.88867 75.6392 8.27606L76.5145 8.73151C77.7094 9.34924 78.2754 9.92247 78.2754 10.9826C78.2754 12.2913 77.0464 13.1054 75.5187 13.1054C74.7994 13.1163 74.0833 13.0093 73.3987 12.7886L73.21 10.8334ZM42.9173 12.608L43.7585 12.3698L46.3554 5.45178L47.2228 5.22929L49.9035 12.3672L50.7447 12.608V12.8698H47.5634V12.608L48.6404 12.3672L47.8805 10.3151H45.0242L44.2695 12.3672L45.3465 12.6054V12.8672H42.9173V12.608ZM45.2234 9.76804H47.6945L46.4681 6.45951L45.2234 9.76804ZM55.9673 9.24454C56.2294 9.1791 57.6994 8.8048 57.6994 7.41229C57.6994 6.29461 56.8425 5.42822 54.7304 5.42822C53.4202 5.42822 52.11 5.45701 51.9449 5.46224V5.724L52.807 5.96481V12.3672L51.9449 12.608V12.8698H54.9951V12.608L53.9941 12.3672V9.47226H54.8562L57.06 12.875H59.0123V12.6133L58.0244 12.3515L55.9673 9.24454ZM62.4084 5.84178V12.3698L61.3602 12.608V12.8698H64.628V12.608L63.5798 12.3698V5.8444H65.3434L65.9251 7.09557H66.1505L65.9828 5.46486H60.0055L59.8377 7.09557H60.0631L60.6396 5.85749L62.4084 5.84178ZM6.49009 10.5533L7.53828 0.661743H5.36328L6.41147 10.5533H6.49009Z" fill="#666666"/>
</g>
<defs>
<clipPath id="clip0_2032_4086">
<rect width="77.4193" height="12.6452" fill="white" transform="translate(0.86377 0.677429)"/>
</clipPath>
</defs>
</svg>
