<svg width="78" height="32" viewBox="0 0 78 32" fill="none" xmlns="http://www.w3.org/2000/svg">
<g clip-path="url(#clip0_2032_4074)">
<path d="M0.762939 17.3183C0.798927 17.2153 0.834914 17.1175 0.886325 17.0196C2.09962 14.5632 7.28695 13.5487 14.7209 14.4499L16.217 8.9398C8.56708 7.96651 2.98388 9.06339 2.05335 12.5497L0.762939 17.3183Z" fill="#666666"/>
<path d="M28.6789 11.5816C28.6481 11.664 28.6172 11.7464 28.5812 11.8288C27.4193 14.3212 22.2114 15.3512 14.7209 14.4448L13.2249 19.955C20.8748 20.9282 26.458 19.8314 27.3885 16.345L28.6789 11.5816Z" fill="#666666"/>
<path d="M5.65723 5.77277C16.947 6.58642 28.4784 12.179 27.3885 16.3553L28.4013 12.627C28.7252 11.4528 28.8846 10.8452 28.8846 10.356C28.8846 6.10235 17.7542 0.911492 7.15328 0.262634L5.65723 5.77277Z" fill="#666666"/>
<path d="M23.7847 23.122C12.4949 22.3135 0.963503 16.7209 2.05855 12.5446L1.04576 16.2729C0.721873 17.447 0.5625 18.0547 0.5625 18.5439C0.5625 22.7975 11.6929 27.9884 22.2938 28.6372L23.7847 23.122Z" fill="#666666"/>
<path d="M64.9647 21.8243C63.5354 21.8449 62.7746 20.9334 62.7746 19.3164C62.7746 19.2083 62.7797 19.1053 62.7848 19.0023H68.3989C68.512 18.5749 68.584 18.1114 68.584 17.684C68.584 15.7116 67.3758 14.2079 64.9081 14.2079C62.3838 14.2079 60.1423 16.7004 60.1423 19.3164C60.1423 21.8243 61.7772 23.3486 64.502 23.3486C65.7101 23.3486 66.8977 22.9418 67.7306 22.3084L67.2113 21.0055C66.5635 21.5102 65.7667 21.8088 64.9647 21.8243ZM64.9492 15.619C65.7821 15.619 66.2088 16.1597 66.2088 17.3492C66.2088 17.4625 66.2037 17.581 66.1882 17.7046H62.9853C63.3349 16.448 64.0804 15.619 64.9492 15.619Z" fill="#666666"/>
<path d="M42.7398 13.6517C42.7398 11.6073 41.1461 10.1191 38.7298 10.1191H34.0566L30.5298 23.1271H33.4808L34.7814 18.3328H37.3417C40.2721 18.3328 42.7398 16.4377 42.7398 13.6517ZM36.2107 16.8085H35.1979L36.5962 11.6434H37.6604C39.0023 11.6434 39.758 12.5549 39.758 13.7599C39.7529 15.691 38.2414 16.8085 36.2107 16.8085Z" fill="#666666"/>
<path d="M46.5854 14.45L46.9144 13.2398C47.0789 12.6064 47.3617 11.5301 47.7472 10.2839C48.1534 9.00162 48.8988 8.20343 49.9013 8.20343C50.3846 8.20343 50.6828 8.42486 50.6828 8.79564C50.6622 9.20246 50.3281 9.44449 50.3281 10.0985C50.3281 10.8607 50.9758 11.4529 51.8138 11.4529C52.8523 11.4529 53.6852 10.6186 53.6852 9.59383C53.6852 8.01289 52.3331 6.97266 50.2715 6.97266C47.2486 6.97266 45.2641 8.90378 44.02 13.42L38.9714 31.7992H41.8299L46.1895 15.8713H49.161L47.2074 23.1168H50.0659L52.405 14.4397H46.5854V14.45Z" fill="#666666"/>
<path d="M61.0523 14.45H53.4846L53.1093 15.8816H56.7749L51.0889 23.1271H59.1038L59.4739 21.6955H55.3508L61.0523 14.45Z" fill="#666666"/>
<path d="M76.0437 14.3006C75.0207 14.3006 73.9308 14.9649 73.0774 16.3399L73.576 14.4499H70.7176L68.3784 23.1271H71.2369L72.2959 19.2237C72.7226 17.6273 73.7611 16.0669 74.45 16.0669C75.1903 16.0669 74.9127 17.4625 76.1928 17.4625C77.1182 17.4625 77.6786 16.6076 77.6786 15.8249C77.6735 14.9134 76.9537 14.3006 76.0437 14.3006Z" fill="#666666"/>
</g>
<defs>
<clipPath id="clip0_2032_4074">
<rect width="77.4193" height="32" fill="white" transform="translate(0.444336)"/>
</clipPath>
</defs>
</svg>
