<svg width="72" height="32" viewBox="0 0 72 32" fill="none" xmlns="http://www.w3.org/2000/svg">
<g clip-path="url(#clip0_2032_4041)">
<path d="M64.3246 12.803C63.6552 13.1469 62.9086 13.3129 62.1565 13.2853C61.4044 13.2576 60.6721 13.0372 60.0298 12.6452C59.3874 12.2531 58.8568 11.7026 58.4886 11.0465C58.1205 10.3904 57.9273 9.65077 57.9275 8.89854V4.38825C57.9279 3.61102 57.7329 2.84615 57.3604 2.16391C56.9879 1.48167 56.4498 0.903925 55.7957 0.483748C56.465 0.13992 57.2116 -0.0261437 57.9637 0.00149963C58.7158 0.0291429 59.4482 0.249565 60.0905 0.641604C60.7328 1.03364 61.2635 1.58414 61.6316 2.24024C61.9998 2.89634 62.193 3.63601 62.1927 4.38825V8.90004C62.191 9.50933 62.31 10.1129 62.5429 10.676C62.7758 11.2391 63.118 11.7505 63.5496 12.1807C63.7845 12.4158 64.0443 12.6244 64.3246 12.803Z" fill="#666666"/>
<path d="M56.2947 8.77492H53.2793C52.6144 8.77604 51.9579 8.62618 51.3593 8.33663C50.7608 8.04709 50.2359 7.62544 49.8242 7.1035C49.4125 6.58156 49.1248 5.97297 48.9828 5.32366C48.8409 4.67435 48.8483 4.00129 49.0046 3.35528C49.1609 2.70926 49.4619 2.10717 49.8851 1.59445C50.3082 1.08172 50.8423 0.671763 51.4471 0.395506C52.0519 0.119249 52.7116 -0.0160863 53.3763 -0.000285473C54.0411 0.0155153 54.6936 0.18204 55.2846 0.486719C55.0051 0.665739 54.7463 0.874957 54.5126 1.11059C53.9565 1.66773 53.5514 2.35714 53.3353 3.11394C53.1193 3.87074 53.0995 4.67003 53.2777 5.4366C53.4559 6.20317 53.8264 6.91181 54.3542 7.49582C54.882 8.07983 55.5498 8.52 56.2947 8.77492Z" fill="#666666"/>
<path d="M71.2221 8.8985C71.2216 9.65042 71.0278 10.3896 70.6594 11.0452C70.2911 11.7008 69.7605 12.2509 69.1184 12.6428C68.4764 13.0347 67.7445 13.2552 66.9927 13.2832C66.2409 13.3113 65.4946 13.1459 64.8251 12.803C65.1049 12.6239 65.3642 12.4146 65.5985 12.1791C66.1547 11.6222 66.5601 10.9331 66.7765 10.1765C66.993 9.41995 67.0135 8.6208 66.8361 7.85415C66.6586 7.08751 66.2891 6.37854 65.7622 5.79386C65.2353 5.20919 64.5683 4.76801 63.824 4.51178H66.8393C68.0018 4.51497 69.1156 4.97835 69.9371 5.80051C70.7585 6.62266 71.2206 7.7366 71.2221 8.8985Z" fill="#666666"/>
<path d="M27.7649 24.839H28.2685V28.0639H32.5533V24.839H33.0568V31.8915H32.5533V28.5747H28.2685V31.899H27.7649V24.839Z" fill="#666666"/>
<path d="M34.8781 29.6823C34.9052 30.1764 35.117 30.6424 35.4717 30.9877C35.8264 31.333 36.298 31.5324 36.7929 31.5464C37.1091 31.5401 37.4195 31.4603 37.6995 31.3133C37.9795 31.1663 38.2214 30.9561 38.4061 30.6995L38.7076 30.9918C38.4891 31.2973 38.2021 31.5475 37.8697 31.7226C37.5373 31.8976 37.1685 31.9926 36.7929 32C35.5325 32 34.4243 30.8924 34.4243 29.4804C34.4243 28.0684 35.534 26.9608 36.7431 26.9608C37.9523 26.9608 38.9609 27.9689 38.9609 29.4804V29.6823H34.8781ZM34.8781 29.2302H38.5071C38.4574 28.1754 37.7005 27.4219 36.7431 27.4219C35.7857 27.4219 34.9294 28.2718 34.8781 29.2287V29.2302Z" fill="#666666"/>
<path d="M43.4477 28.8761C43.4477 28.0398 42.8627 27.4159 42.0908 27.4159C41.8187 27.425 41.5517 27.4928 41.3082 27.6145C41.0646 27.7362 40.8502 27.909 40.6796 28.1211L40.3781 27.8198C40.3781 27.8198 41.0038 26.9638 42.0923 26.9638C43.1311 26.9638 43.9015 27.8002 43.9015 28.8776V31.9006H43.4492V31.0928C43.2511 31.3757 42.9868 31.606 42.6794 31.7635C42.372 31.9211 42.0307 32.0013 41.6852 31.997C40.7279 31.997 40.072 31.3415 40.072 30.6408C40.072 29.8873 40.6268 29.3207 41.533 29.1805L43.4477 28.8761ZM43.4477 29.7803V29.3282L41.6385 29.6296C40.8847 29.7501 40.5288 30.1329 40.5288 30.6377C40.5288 31.0898 40.9812 31.5419 41.6883 31.5419C41.9207 31.5468 42.1517 31.5047 42.3674 31.4181C42.5831 31.3315 42.779 31.2021 42.9434 31.0378C43.1077 30.8735 43.2372 30.6777 43.3238 30.4621C43.4105 30.2465 43.4526 30.0156 43.4477 29.7833V29.7803Z" fill="#666666"/>
<path d="M46.0485 31.899H45.5962V24.839H46.0485V31.8915V31.899Z" fill="#666666"/>
<path d="M48.2452 25.4508H48.6477V27.0632H49.7574V27.5153H48.6477V30.689C48.6477 31.2435 48.9493 31.5449 49.4016 31.5449C49.6282 31.5405 49.8516 31.4892 50.0574 31.3942V31.8463C49.8516 31.9413 49.6282 31.9926 49.4016 31.997C48.6477 31.997 48.1954 31.5449 48.1954 30.6874V27.5153H47.238V27.0632H47.8939C47.9444 27.0628 47.9943 27.0516 48.0402 27.0306C48.0861 27.0095 48.1271 26.979 48.1604 26.941C48.1937 26.903 48.2186 26.8584 48.2335 26.8101C48.2483 26.7619 48.2528 26.711 48.2467 26.6609V25.4553L48.2452 25.4508Z" fill="#666666"/>
<path d="M51.7987 27.9192C51.9614 27.6235 52.202 27.378 52.4943 27.2093C52.7867 27.0406 53.1197 26.9552 53.4572 26.9623C54.5668 26.9623 55.4172 27.8182 55.4172 29.0283V31.9005H54.9649V29.0268C54.9649 28.0699 54.309 27.4144 53.4572 27.4144C52.5526 27.4144 51.7987 28.1678 51.7987 29.1775V31.8975H51.3464V24.839H51.7987V27.9117V27.9192Z" fill="#666666"/>
<path d="M0.5378 13.5264C0.5378 11.6201 2.18418 9.97449 4.78493 9.97449C7.47161 9.97449 8.77122 11.6201 8.77122 11.6201L7.21832 13.2672C7.21832 13.2672 6.3514 12.2274 4.96434 12.2274C3.92404 12.2274 3.31796 12.8301 3.31796 13.5264C3.31796 15.7777 9.2974 14.4787 9.2974 18.8097C9.2974 20.9752 7.65102 22.6208 4.70351 22.6208C1.67006 22.6208 0.109619 20.6286 0.109619 20.6286L1.67006 19.0689C2.0302 19.4735 2.4712 19.7982 2.9646 20.0219C3.45801 20.2456 3.99286 20.3635 4.53465 20.3679C5.83427 20.3679 6.5278 19.6747 6.5278 18.8082C6.52479 16.5583 0.5378 17.8588 0.5378 13.5264Z" fill="#666666"/>
<path d="M12.9895 22.2772L9.69678 13.8745H12.1241L14.1173 19.5044L15.9159 14.4411C15.9742 14.277 16.0819 14.135 16.2242 14.0347C16.3664 13.9343 16.5363 13.8804 16.7105 13.8805H18.5408L15.1621 22.88C14.3826 24.9595 13.3423 25.9978 11.8693 25.9978C11.3665 26.0023 10.8671 25.9139 10.3963 25.7371V23.6575C10.6698 23.7758 10.9653 23.8349 11.2633 23.8308C11.5771 23.8433 11.8871 23.7585 12.1508 23.588C12.4145 23.4175 12.619 23.1696 12.7363 22.8785L12.9895 22.2772Z" fill="#666666"/>
<path d="M22.0552 14.9128C22.0552 14.9128 22.9222 13.7072 24.4826 13.7072C26.3898 13.7072 27.7754 15.0936 27.7754 17.4324V22.3706H26.2783C26.0547 22.3706 25.8404 22.2819 25.6823 22.1239C25.5243 21.9659 25.4355 21.7517 25.4355 21.5283V17.6856C25.4355 16.6458 24.7419 15.9526 23.7891 15.9526C22.7488 15.9526 22.0552 16.6458 22.0552 17.9447V22.3631H19.7153V13.873H22.0552V14.9128Z" fill="#666666"/>
<path d="M31.5265 18.8971C31.6999 19.7636 32.4794 20.5427 33.7805 20.5427C34.3804 20.5426 34.966 20.3591 35.4585 20.0167C35.635 19.8998 35.8493 19.8543 36.0581 19.8892C36.2669 19.9242 36.4546 20.0371 36.5833 20.2051L37.2451 21.0565C36.7666 21.5311 36.1983 21.9056 35.5734 22.1584C34.9486 22.4112 34.2796 22.5371 33.6056 22.5288C30.7561 22.5288 28.5745 19.967 29.2092 17.1174C29.4287 16.1343 29.9812 15.2571 30.7732 14.6343C31.5653 14.0116 32.5482 13.6814 33.5558 13.6996C35.9681 13.7192 37.7638 15.5321 37.7638 17.9432C37.7704 18.2629 37.7415 18.5823 37.6778 18.8956H31.5265V18.8971ZM31.5265 17.2515H35.4269C35.3489 16.8061 35.1134 16.4036 34.7633 16.1173C34.4132 15.831 33.9719 15.68 33.5197 15.6918C32.4794 15.6918 31.7858 16.385 31.5265 17.2515Z" fill="#666666"/>
<path d="M43.4627 22.5364C41.0354 22.5364 38.9563 20.4568 38.9563 18.118C38.9563 15.7792 41.0369 13.6996 43.4627 13.6996C45.8886 13.6996 47.9692 15.7777 47.9692 18.118C47.9692 20.4583 45.8886 22.5364 43.4627 22.5364ZM43.4627 20.3709C44.589 20.3709 45.5433 19.4185 45.5433 18.118C45.5433 16.8175 44.5905 15.8651 43.4627 15.8651C42.335 15.8651 41.3822 16.8175 41.3822 18.118C41.3822 19.4185 42.3365 20.3709 43.4627 20.3709Z" fill="#666666"/>
<path d="M54.0406 16.385C54.0406 16.385 53.5205 15.6918 52.6536 15.6918C51.96 15.6918 51.6133 16.0384 51.6133 16.385C51.6133 17.5906 55.5136 16.9878 55.5136 19.851C55.5136 21.3233 54.3075 22.5364 52.1334 22.5364C49.7061 22.5364 48.6658 20.9767 48.6658 20.9767L49.9654 19.6777C49.9654 19.6777 50.6589 20.6301 51.7852 20.6301C52.5646 20.6301 52.9114 20.2835 52.9114 19.851C52.9114 18.552 49.011 19.1925 49.011 16.385C49.011 15.086 50.3981 13.6996 52.3038 13.6996C54.2969 13.6996 55.2498 14.9986 55.2498 14.9986L54.0406 16.385Z" fill="#666666"/>
<path d="M57.2913 20.5518C57.4269 20.5553 57.5583 20.5987 57.6692 20.6766C57.7802 20.7545 57.8657 20.8633 57.915 20.9895C57.9643 21.1157 57.9753 21.2537 57.9466 21.3861C57.9179 21.5185 57.8508 21.6395 57.7536 21.734C57.6564 21.8284 57.5335 21.8921 57.4002 21.9171C57.267 21.942 57.1294 21.9272 57.0045 21.8743C56.8797 21.8215 56.7733 21.733 56.6985 21.62C56.6237 21.507 56.584 21.3744 56.5842 21.2389C56.5836 21.1468 56.6016 21.0556 56.6371 20.9706C56.6727 20.8856 56.725 20.8087 56.7911 20.7445C56.8572 20.6803 56.9355 20.6302 57.0215 20.597C57.1075 20.5639 57.1993 20.5485 57.2913 20.5518ZM57.2913 21.7814C57.3992 21.7859 57.5059 21.7581 57.5978 21.7015C57.6897 21.645 57.7626 21.5622 57.8071 21.4639C57.8516 21.3657 57.8657 21.2563 57.8475 21.15C57.8294 21.0436 57.7798 20.9451 57.7053 20.8672C57.6307 20.7892 57.5345 20.7352 57.4291 20.7123C57.3236 20.6893 57.2137 20.6984 57.1134 20.7384C57.0132 20.7784 56.9272 20.8474 56.8665 20.9366C56.8058 21.0258 56.7731 21.131 56.7727 21.2389C56.7701 21.3088 56.7815 21.3786 56.8064 21.444C56.8312 21.5094 56.8689 21.5692 56.9173 21.6198C56.9656 21.6704 57.0237 21.7107 57.0879 21.7385C57.1522 21.7663 57.2213 21.7809 57.2913 21.7814ZM57.0169 20.8516H57.3079C57.5009 20.8516 57.6095 20.9119 57.6095 21.0807C57.6114 21.1079 57.6076 21.1353 57.5982 21.1609C57.5888 21.1865 57.574 21.2099 57.5549 21.2294C57.5358 21.2489 57.5128 21.2641 57.4874 21.2741C57.462 21.284 57.4347 21.2885 57.4074 21.2871L57.614 21.6247H57.4527L57.2642 21.2947H57.1677V21.6247H57.0169V20.8531V20.8516ZM57.1677 21.1741H57.3034C57.3893 21.1741 57.4542 21.1606 57.4542 21.0671C57.4542 20.9737 57.3652 20.9707 57.2959 20.9707H57.1677V21.1726V21.1741Z" fill="#666666"/>
</g>
<defs>
<clipPath id="clip0_2032_4041">
<rect width="71.1111" height="32" fill="white" transform="translate(0.111084)"/>
</clipPath>
</defs>
</svg>
